<svg width="40" height="40" viewBox="0 0 40 40" fill="none" xmlns="http://www.w3.org/2000/svg">
<path d="M26.18 16.6457L26.2002 16.6514C28.6781 17.3579 30.8276 18.8385 32.3446 20.7992C33.8293 22.7182 34.7124 25.0995 34.7124 27.6679V38.4058V39V39.15H34.5624H33.9682H4.41349H3.81934H3.66934V39V38.4058V27.6679C3.66934 25.0989 4.55235 22.7182 6.03712 20.7991C7.55401 18.8385 9.70339 17.358 12.1813 16.6515C12.1814 16.6515 12.1814 16.6515 12.1815 16.6514L12.5047 16.5587L12.5869 16.5351L12.649 16.5938L12.8937 16.8249L26.18 16.6457ZM26.18 16.6457H26.1795M26.18 16.6457H26.1795M26.1795 16.6457L25.8764 16.5587L25.7942 16.5351L25.7321 16.5938L25.4874 16.8249C24.6612 17.6034 23.6783 18.2316 22.5901 18.6591L22.59 18.6591C21.5444 19.0703 20.3954 19.2978 19.1905 19.2978C17.9857 19.2978 16.8367 19.0703 15.7911 18.6591L15.791 18.6591C14.7028 18.2316 13.72 17.6035 12.8938 16.825L26.1795 16.6457ZM27.9499 32.4679L27.9511 37.6623H10.4329L10.4317 32.4678C10.4317 32.4678 10.4317 32.4678 10.4317 32.4678C10.4317 32.0586 10.0997 31.7266 9.69055 31.7266C9.28136 31.7266 8.94935 32.0586 8.94935 32.4678V32.4679L8.9505 37.6623H5.15765V27.6685C5.15765 25.4392 5.92351 23.373 7.21205 21.7069C8.45744 20.097 10.1942 18.8565 12.2004 18.199C13.0925 18.9721 14.1226 19.6 15.2498 20.0427C16.4688 20.5224 17.8005 20.7867 19.1911 20.7867C20.5819 20.7867 21.9135 20.5217 23.1326 20.0426C24.2598 19.6005 25.2898 18.972 26.1819 18.199C28.1881 18.8565 29.9248 20.0976 31.1702 21.707C32.4594 23.3729 33.2246 25.4392 33.2246 27.6685V37.6623H29.4335L29.4323 32.4678C29.4323 32.4678 29.4323 32.4678 29.4323 32.4678C29.4323 32.0586 29.1003 31.7266 28.6911 31.7266C28.282 31.7266 27.9499 32.0586 27.9499 32.4678V32.4679ZM22.7537 25.7868H22.6037V25.9368V27.1246V27.2746H22.7537H27.4478H27.5978V27.1246V25.9368V25.7868H27.4478H22.7537ZM16.084 32.9481L16.084 32.9482L16.0438 33.2036L16.0335 33.2688L16.0747 33.3204L16.2373 33.5244L16.2374 33.5246L18.6117 36.493L18.6117 36.4931L19.0735 37.0695L19.1905 37.2157L19.3076 37.0695L19.7693 36.4931L19.7694 36.493L22.1454 33.5246L22.1456 33.5244L22.3082 33.3204L22.3493 33.2688L22.3391 33.2036L22.2989 32.9482L22.2989 32.9481L20.517 21.6668L20.517 21.6668L20.4372 21.1631L20.4171 21.0365H20.289H19.7847H18.5976H18.0933H17.9652L17.9451 21.1631L17.8653 21.6668L17.8653 21.6668L16.084 32.9481ZM23.8985 4.22216L23.8986 4.22221C25.0967 5.38217 25.8364 6.98453 25.8364 8.75182C25.8364 10.5185 25.0961 12.1215 23.8986 13.2815L23.8985 13.2815C22.6981 14.4449 21.0345 15.1653 19.1917 15.1653C17.3496 15.1653 15.6854 14.4449 14.4849 13.2815L14.4849 13.2814C13.2868 12.1215 12.5471 10.5191 12.5471 8.75182C12.5471 6.98514 13.2874 5.38217 14.4849 4.22219L14.4849 4.22216C15.6854 3.05871 17.349 2.33831 19.1917 2.33831C21.0339 2.33831 22.6981 3.05871 23.8985 4.22216ZM17.5997 32.8556L19.1914 22.7731L20.7838 32.8556L19.1912 34.8456L17.5997 32.8556ZM27.3247 8.75241C27.3247 6.56694 26.4091 4.58723 24.9338 3.15832C23.4616 1.73197 21.431 0.85 19.1917 0.85C16.9525 0.85 14.9218 1.73197 13.4497 3.15833C11.9738 4.58783 11.0588 6.56695 11.0588 8.75241C11.0588 10.9379 11.9744 12.9176 13.4497 14.3465C14.9218 15.7728 16.9525 16.6548 19.1917 16.6548C21.431 16.6548 23.4616 15.7728 24.9338 14.3465C26.4097 12.917 27.3247 10.9379 27.3247 8.75241Z" fill="white" stroke="white" stroke-width="0.3"/>
</svg>
