<svg width="40" height="40" viewBox="0 0 40 40" fill="none" xmlns="http://www.w3.org/2000/svg">
<path d="M23.1036 24.4387C24.6413 24.8909 25.9737 25.8372 26.913 27.0931C27.8315 28.3176 28.3776 29.8379 28.3776 31.4765V38.0585V38.81H27.6262H10.0752H9.32373V38.0585V31.4765C9.32373 29.8414 9.86992 28.3211 10.7883 27.0931C11.7276 25.8407 13.0601 24.8909 14.5977 24.4387L15.0187 24.3169L15.3353 24.623C15.798 25.0718 16.3476 25.4336 16.9564 25.6806C17.5409 25.9172 18.181 26.0494 18.8524 26.0494C19.5273 26.0494 20.1674 25.9172 20.7484 25.6806C21.3572 25.4336 21.9069 25.0718 22.3696 24.623L22.6827 24.3169L23.1036 24.4387ZM18.8524 14.7395C20.2683 14.7395 21.5555 15.317 22.4844 16.2459L22.4879 16.2493C23.4167 17.1782 23.9942 18.4654 23.9942 19.8813C23.9942 21.3007 23.4167 22.5879 22.4879 23.5168C21.559 24.4456 20.2718 25.0231 18.8524 25.0231C17.4365 25.0231 16.1528 24.4491 15.2205 23.5168L15.217 23.5133C14.2881 22.5809 13.7106 21.2972 13.7106 19.8813C13.7106 18.4619 14.2881 17.1747 15.217 16.2459C16.1458 15.317 17.433 14.7395 18.8524 14.7395ZM21.4268 17.3069C20.7693 16.6529 19.8578 16.2459 18.8524 16.2459C17.847 16.2459 16.939 16.6529 16.2815 17.3104C15.624 17.9679 15.217 18.8759 15.217 19.8813C15.217 20.8867 15.624 21.7982 16.278 22.4522L16.2815 22.4557C16.9356 23.1097 17.847 23.5168 18.8524 23.5168C19.8578 23.5168 20.7658 23.1097 21.4233 22.4522C22.0808 21.7947 22.4879 20.8867 22.4879 19.8813C22.4879 18.8759 22.0808 17.9644 21.4268 17.3069ZM23.1245 37.3071L23.1071 34.3013C23.1071 33.8873 23.4411 33.5499 23.8551 33.5499C24.2691 33.5499 24.6065 33.8839 24.6065 34.2978L24.6239 37.3071H26.8782V31.4765C26.8782 30.1719 26.4469 28.9647 25.7163 27.9941C25.0483 27.1035 24.1299 26.4077 23.0723 26.0111C22.5505 26.4529 21.9556 26.8147 21.3155 27.0722C20.5536 27.3818 19.7221 27.5523 18.8559 27.5523C17.9862 27.5523 17.1547 27.3818 16.3963 27.0722C15.7562 26.8113 15.1613 26.4495 14.6395 26.0111C13.5819 26.4077 12.6635 27.1035 11.9955 27.9941C11.2684 28.9647 10.8336 30.1719 10.8336 31.4765V37.3071H13.0983L13.0809 34.3013C13.0809 33.8873 13.4149 33.5499 13.8289 33.5499C14.2429 33.5499 14.5803 33.8839 14.5803 34.2978L14.5977 37.3071H23.128H23.1245Z" fill="white"/>
<path fill-rule="evenodd" clip-rule="evenodd" d="M7.91064 18.6467C8.82907 18.6467 9.66053 19.019 10.2624 19.6208L10.2659 19.6243C10.8677 20.2261 11.2399 21.0576 11.2399 21.976C11.2399 22.8945 10.8677 23.7294 10.2659 24.3312C10.3424 24.3278 10.4189 24.3382 10.4955 24.3626C11.2273 24.5784 11.8875 24.9736 12.4216 25.4938C12.0099 25.7866 11.6294 26.1206 11.2864 26.4894C10.9423 26.1791 10.5294 25.9425 10.078 25.8098C9.6814 25.695 9.45179 25.2775 9.57007 24.8774L9.56659 24.8705C9.07955 25.1488 8.51249 25.3123 7.91064 25.3123C7.30879 25.3123 6.74173 25.1523 6.25121 24.867V24.8705C6.36601 25.2671 6.13988 25.6845 5.74329 25.8028C5.08926 25.9942 4.5222 26.4012 4.12212 26.9335C3.73597 27.4518 3.50288 28.0954 3.50288 28.7947V31.9118H4.21605L4.2091 30.4576C4.2091 30.0436 4.54307 29.7061 4.95706 29.7061C5.37105 29.7061 5.7085 30.0401 5.7085 30.4541L5.71546 31.9152H9.31794V33.4146H2.75144H2V32.6632V28.7947C2 27.7649 2.34441 26.8047 2.92538 26.0324C3.5168 25.2427 4.35869 24.6443 5.32582 24.3626C5.40236 24.3382 5.48237 24.3312 5.55891 24.3312L5.55543 24.3278C4.95358 23.7224 4.57786 22.891 4.57786 21.976C4.57786 21.0541 4.95358 20.2227 5.55543 19.6208C6.15728 19.019 6.99221 18.6467 7.91064 18.6467ZM9.20479 20.6854C8.8743 20.3583 8.41508 20.1531 7.91064 20.1531C7.4062 20.1531 6.94699 20.3583 6.61997 20.6888C6.28948 21.0193 6.08422 21.4785 6.08422 21.9795C6.08422 22.4874 6.28948 22.9432 6.61649 23.2702L6.61997 23.2737C6.94699 23.6007 7.4062 23.8059 7.91064 23.8059C8.41508 23.8059 8.87082 23.6007 9.20131 23.2702C9.53181 22.9397 9.73706 22.484 9.73706 21.9795C9.73706 21.4751 9.53181 21.0159 9.20479 20.6854Z" fill="white"/>
<path fill-rule="evenodd" clip-rule="evenodd" d="M18.7422 4.20361H36.7963V35.4975H28.3711V36.7011H36.7963C37.4611 36.7011 38 36.1622 38 35.4975V4.20361C38 3.53887 37.4611 3 36.7963 3H18.7422C18.0774 3 17.5386 3.53887 17.5386 4.20361V15.0361H18.7422V4.20361Z" fill="white"/>
<path d="M29.5747 8.71716C29.5747 8.21861 29.9789 7.81445 30.4774 7.81445H32.2828C32.7814 7.81445 33.1855 8.21861 33.1855 8.71716C33.1855 9.21571 32.7814 9.61987 32.2828 9.61987H30.4774C29.9789 9.61987 29.5747 9.21571 29.5747 8.71716Z" fill="white"/>
<path d="M29.5747 14.1334C29.5747 13.6349 29.9789 13.2307 30.4774 13.2307H32.2828C32.7814 13.2307 33.1855 13.6349 33.1855 14.1334C33.1855 14.632 32.7814 15.0361 32.2828 15.0361H30.4774C29.9789 15.0361 29.5747 14.632 29.5747 14.1334Z" fill="white"/>
<path d="M29.5747 24.9659C29.5747 24.4674 29.9789 24.0632 30.4774 24.0632H32.2828C32.7814 24.0632 33.1855 24.4674 33.1855 24.9659C33.1855 25.4645 32.7814 25.8686 32.2828 25.8686H30.4774C29.9789 25.8686 29.5747 25.4645 29.5747 24.9659Z" fill="white"/>
<path d="M29.5747 19.5494C29.5747 19.0509 29.9789 18.6467 30.4774 18.6467H32.2828C32.7814 18.6467 33.1855 19.0509 33.1855 19.5494C33.1855 20.048 32.7814 20.4521 32.2828 20.4521H30.4774C29.9789 20.4521 29.5747 20.048 29.5747 19.5494Z" fill="white"/>
<path fill-rule="evenodd" clip-rule="evenodd" d="M22.6157 24.3295L22.9897 24.4377C23.9161 24.7102 24.768 25.1619 25.5043 25.7527C25.7787 25.5979 25.9641 25.3035 25.9641 24.9659C25.9641 24.4674 25.5599 24.0632 25.0613 24.0632H23.2559C23.0057 24.0632 22.7792 24.1651 22.6157 24.3295Z" fill="white"/>
<path fill-rule="evenodd" clip-rule="evenodd" d="M23.9628 20.4521C23.9839 20.2632 23.9947 20.0713 23.9947 19.8768C23.9947 19.4532 23.943 19.0411 23.8457 18.6467H25.0611C25.5597 18.6467 25.9638 19.0509 25.9638 19.5494C25.9638 20.048 25.5597 20.4521 25.0611 20.4521H23.9628Z" fill="white"/>
<path d="M29.5747 30.382C29.5747 29.8834 29.9789 29.4792 30.4774 29.4792H32.2828C32.7814 29.4792 33.1855 29.8834 33.1855 30.382C33.1855 30.8805 32.7814 31.2847 32.2828 31.2847H30.4774C29.9789 31.2847 29.5747 30.8805 29.5747 30.382Z" fill="white"/>
<path d="M22.353 8.71716C22.353 8.21861 22.7572 7.81445 23.2557 7.81445H25.0612C25.5597 7.81445 25.9639 8.21861 25.9639 8.71716C25.9639 9.21571 25.5597 9.61987 25.0612 9.61987H23.2557C22.7572 9.61987 22.353 9.21571 22.353 8.71716Z" fill="white"/>
<path d="M22.353 14.1334C22.353 13.6349 22.7572 13.2307 23.2557 13.2307H25.0612C25.5597 13.2307 25.9639 13.6349 25.9639 14.1334C25.9639 14.632 25.5597 15.0361 25.0612 15.0361H23.2557C22.7572 15.0361 22.353 14.632 22.353 14.1334Z" fill="white"/>
</svg>
