<svg width="40" height="40" viewBox="0 0 40 40" fill="none" xmlns="http://www.w3.org/2000/svg">
<path d="M14.9735 15.5H12.6401V17.8333H14.9735V15.5Z" fill="white"/>
<path d="M18.4735 15.5H16.1401V17.8333H18.4735V15.5Z" fill="white"/>
<path d="M21.9735 15.5H19.6401V17.8333H21.9735V15.5Z" fill="white"/>
<path d="M25.4735 15.5H23.1401V17.8333H25.4735V15.5Z" fill="white"/>
<path d="M14.9735 20.1667H12.6401V22.5H14.9735V20.1667Z" fill="white"/>
<path d="M18.4735 20.1667H16.1401V22.5H18.4735V20.1667Z" fill="white"/>
<path d="M21.9735 20.1667H19.6401V22.5H21.9735V20.1667Z" fill="white"/>
<path d="M25.4735 20.1667H23.1401V22.5H25.4735V20.1667Z" fill="white"/>
<path d="M14.9735 24.8333H12.6401V27.1667H14.9735V24.8333Z" fill="white"/>
<path d="M18.4735 24.8333H16.1401V27.1667H18.4735V24.8333Z" fill="white"/>
<path d="M21.9735 24.8333H19.6401V27.1667H21.9735V24.8333Z" fill="white"/>
<path d="M25.4735 24.8333H23.1401V27.1667H25.4735V24.8333Z" fill="white"/>
<path d="M14.9735 29.5H12.6401V31.8333H14.9735V29.5Z" fill="white"/>
<path d="M18.4735 29.5H16.1401V31.8333H18.4735V29.5Z" fill="white"/>
<path d="M21.9735 29.5H19.6401V31.8333H21.9735V29.5Z" fill="white"/>
<path d="M25.4735 29.5H23.1401V31.8333H25.4735V29.5Z" fill="white"/>
<path fill-rule="evenodd" clip-rule="evenodd" d="M28.3901 16.0833V13.1667C28.3901 12.5227 27.8675 12 27.2235 12H25.4735H12.6401H10.8901C10.2461 12 9.72347 12.5227 9.72347 13.1667V16.0833H1.5568C0.912803 16.0833 0.390137 16.606 0.390137 17.25V38.8333C0.390137 39.4773 0.912803 40 1.5568 40H10.3068H27.2235C27.8675 40 28.3901 39.4773 28.3901 38.8333V16.0833ZM1.5568 38.8333H9.72347V17.25H1.5568V38.8333ZM17.8901 38.8333H20.2235V35.3333H17.8901V38.8333ZM21.3901 38.8333H27.2235V13.1667H10.8901V38.8333H16.7235V34.1667H21.3901V38.8333Z" fill="white"/>
<path d="M5.0568 34.1667H2.72347V36.5H5.0568V34.1667Z" fill="white"/>
<path d="M8.5568 34.1667H6.22347V36.5H8.5568V34.1667Z" fill="white"/>
<path d="M8.5568 29.5H6.22347V31.8333H8.5568V29.5Z" fill="white"/>
<path d="M5.0568 29.5H2.72347V31.8333H5.0568V29.5Z" fill="white"/>
<path d="M5.0568 24.8333H2.72347V27.1667H5.0568V24.8333Z" fill="white"/>
<path d="M8.5568 24.8333H6.22347V27.1667H8.5568V24.8333Z" fill="white"/>
<path d="M5.0568 20.1667H2.72347V22.5H5.0568V20.1667Z" fill="white"/>
<path d="M8.5568 20.1667H6.22347V22.5H8.5568V20.1667Z" fill="white"/>
<path fill-rule="evenodd" clip-rule="evenodd" d="M23.8695 0.350098C20.5819 0.350098 17.52 1.33352 14.9706 3.02515C14.6338 3.24893 14.3061 3.48549 13.9882 3.73202C13.2332 4.31593 12.5336 4.96675 11.8953 5.67392C11.8735 5.69495 11.853 5.71773 11.834 5.7422C9.36979 8.50321 7.84078 12.1154 7.74512 16.0833H9.72368V15.8291H9.05434C9.19907 12.4729 10.4587 9.40819 12.4737 6.99056C13.4306 7.56674 14.5227 8.06681 15.7166 8.47722C15.3538 9.57782 15.0644 10.7589 14.8586 12H16.1773C16.3714 10.8906 16.6353 9.83893 16.9588 8.86128C18.8592 9.38635 20.9798 9.70174 23.2195 9.75308V12H24.5195V9.75308C26.7592 9.70175 28.8799 9.38633 30.7803 8.86129C31.4581 10.9091 31.874 13.2816 31.9348 15.8291H28.3904V16.0833V17.1291H31.9348C31.874 19.6766 31.4581 22.049 30.7804 24.0968C30.017 23.8854 29.2181 23.7083 28.3904 23.5687V24.8881C29.06 25.0073 29.7074 25.1524 30.3285 25.3209C30.0685 25.9554 29.7817 26.5506 29.4714 27.1009C29.1332 27.7009 28.7713 28.2413 28.3904 28.7192V31.9669C31.316 31.115 33.896 29.4573 35.8762 27.2509L35.881 27.2456C36.5517 26.4984 37.1537 25.6882 37.6759 24.8237C39.1499 22.3878 39.9987 19.5324 39.9987 16.4793C39.9987 12.3576 38.4527 8.59374 35.9063 5.74354C35.8864 5.71785 35.865 5.69403 35.8421 5.67211C35.4651 5.25519 35.0655 4.85679 34.6457 4.47918C34.088 3.97785 33.4926 3.51294 32.8674 3.09179C32.161 2.61724 31.4144 2.19389 30.6319 1.833C29.8125 1.45271 28.9566 1.14224 28.0717 0.903668C26.732 0.543221 25.3232 0.350098 23.8695 0.350098ZM30.6039 27.7393C30.9597 27.1082 31.2851 26.427 31.5767 25.7027C32.6104 26.0565 33.549 26.4773 34.3717 26.9503C32.7287 28.5985 30.7011 29.8613 28.435 30.5933C29.2513 29.8159 29.9804 28.8452 30.6039 27.7393ZM32.0225 24.4813C33.2171 24.8919 34.3097 25.3923 35.267 25.9689C35.7434 25.3978 36.1772 24.7905 36.5632 24.1515C36.605 24.0824 36.6463 24.0129 36.687 23.9431L36.7127 23.8989C37.8737 21.8919 38.5787 19.5891 38.6847 17.1291H33.2351C33.1745 19.7906 32.7432 22.2947 32.0225 24.4813ZM34.3699 6.00927C34.1776 5.81652 33.9797 5.62868 33.7767 5.44602C33.2636 4.98486 32.7166 4.55767 32.1419 4.17049C31.4903 3.73284 30.8039 3.34389 30.0869 3.01328L30.0854 3.01259C29.553 2.76544 29.003 2.55008 28.4376 2.36739C29.2528 3.14436 29.9811 4.11419 30.6039 5.2189C30.9597 5.85011 31.2852 6.53141 31.5768 7.25584C32.6097 6.90228 33.5476 6.48187 34.3699 6.00927ZM30.3285 7.63715C30.0685 7.0027 29.7816 6.40759 29.4714 5.85732C28.1063 3.43577 26.3562 1.98376 24.5195 1.70539V8.45273C26.6051 8.40263 28.5717 8.11275 30.3285 7.63715ZM23.2195 8.45272V1.7054C21.3829 1.98381 19.6329 3.43582 18.2677 5.85732C17.9575 6.40758 17.6707 7.00268 17.4107 7.63711C19.1674 8.11268 21.134 8.4026 23.2195 8.45272ZM16.1624 7.25581C16.454 6.5314 16.7795 5.8501 17.1353 5.2189C17.7586 4.11335 18.4874 3.14288 19.3034 2.3656C18.1058 2.75255 16.9753 3.28774 15.9336 3.94973C15.8518 4.00175 15.7704 4.05456 15.6897 4.10813C15.4477 4.26892 15.2102 4.43735 14.9771 4.61253C14.9126 4.66104 14.8484 4.71006 14.7845 4.75957C14.2864 5.14483 13.8136 5.56255 13.3687 6.00889C14.1911 6.48163 15.1292 6.90216 16.1624 7.25581ZM32.0226 8.47726C33.2167 8.06682 34.3087 7.56673 35.2657 6.99047C37.2811 9.40599 38.5401 12.4729 38.6847 15.8291H33.2351C33.1745 13.1677 32.7433 10.6637 32.0226 8.47726Z" fill="white"/>
</svg>
