<svg width="40" height="40" viewBox="0 0 40 40" fill="none" xmlns="http://www.w3.org/2000/svg">
<circle cx="20" cy="20" r="18.25" stroke="white" stroke-width="1.5"/>
<path d="M23.6231 17.8118C24.9007 18.1876 26.0077 18.9737 26.7881 20.0172C27.5511 21.0346 28.0049 22.2977 28.0049 23.659V29.1276V29.752H27.3806H12.7986H12.1743V29.1276V23.659C12.1743 22.3006 12.6281 21.0375 13.3912 20.0172C14.1716 18.9766 15.2786 18.1876 16.5561 17.8118L16.9059 17.7106L17.1689 17.965C17.5533 18.3379 18.01 18.6385 18.5158 18.8437C19.0014 19.0402 19.5332 19.1501 20.0911 19.1501C20.6518 19.1501 21.1836 19.0402 21.6663 18.8437C22.1721 18.6385 22.6288 18.3379 23.0132 17.965L23.2734 17.7106L23.6231 17.8118ZM20.0911 9.75342C21.2675 9.75342 22.3369 10.2332 23.1086 11.005L23.1115 11.0078C23.8833 11.7796 24.3631 12.849 24.3631 14.0254C24.3631 15.2047 23.8833 16.2741 23.1115 17.0459C22.3398 17.8176 21.2703 18.2974 20.0911 18.2974C18.9147 18.2974 17.8481 17.8205 17.0735 17.0459L17.0706 17.043C16.2989 16.2683 15.8191 15.2018 15.8191 14.0254C15.8191 12.8461 16.2989 11.7767 17.0706 11.005C17.8424 10.2332 18.9118 9.75342 20.0911 9.75342ZM22.23 11.8865C21.6837 11.3431 20.9264 11.005 20.0911 11.005C19.2558 11.005 18.5014 11.3431 17.9551 11.8894C17.4088 12.4357 17.0706 13.1901 17.0706 14.0254C17.0706 14.8607 17.4088 15.618 17.9522 16.1614L17.9551 16.1643C18.4985 16.7077 19.2558 17.0459 20.0911 17.0459C20.9264 17.0459 21.6808 16.7077 22.2271 16.1614C22.7733 15.6151 23.1115 14.8607 23.1115 14.0254C23.1115 13.1901 22.7733 12.4328 22.23 11.8865ZM23.6405 28.5033L23.626 26.006C23.626 25.6621 23.9035 25.3817 24.2474 25.3817C24.5914 25.3817 24.8718 25.6592 24.8718 26.0031L24.8862 28.5033H26.7592V23.659C26.7592 22.5752 26.4008 21.5722 25.7938 20.7658C25.2388 20.0258 24.4758 19.4478 23.5971 19.1183C23.1635 19.4853 22.6693 19.7859 22.1375 19.9998C21.5045 20.2571 20.8137 20.3987 20.094 20.3987C19.3714 20.3987 18.6806 20.2571 18.0505 19.9998C17.5186 19.783 17.0244 19.4824 16.5908 19.1183C15.7121 19.4478 14.9491 20.0258 14.3941 20.7658C13.79 21.5722 13.4287 22.5752 13.4287 23.659V28.5033H15.3104L15.2959 26.006C15.2959 25.6621 15.5734 25.3817 15.9174 25.3817C16.2613 25.3817 16.5417 25.6592 16.5417 26.0031L16.5561 28.5033H23.6434H23.6405Z" fill="white"/>
<path fill-rule="evenodd" clip-rule="evenodd" d="M11.0006 13C11.7637 13 12.4545 13.3093 12.9545 13.8093L12.9574 13.8122C13.4574 14.3122 13.7667 15.003 13.7667 15.7661C13.7667 16.5292 13.4574 17.2228 12.9574 17.7229C13.021 17.72 13.0846 17.7287 13.1482 17.7489C13.7562 17.9282 14.3047 18.2566 14.7484 18.6887C14.4064 18.932 14.0902 19.2095 13.8053 19.5159C13.5193 19.2582 13.1763 19.0616 12.8013 18.9513C12.4718 18.8559 12.281 18.5091 12.3793 18.1767L12.3764 18.1709C11.9718 18.4021 11.5006 18.538 11.0006 18.538C10.5006 18.538 10.0294 18.405 9.62189 18.168V18.1709C9.71727 18.5004 9.5294 18.8472 9.19989 18.9455C8.6565 19.1045 8.18537 19.4427 7.85298 19.8849C7.53214 20.3156 7.33849 20.8503 7.33849 21.4312V24.021H7.93102L7.92524 22.8128C7.92524 22.4689 8.20271 22.1885 8.54667 22.1885C8.89062 22.1885 9.17099 22.466 9.17099 22.81L9.17677 24.0239H12.1698V25.2697H6.71417H6.08984V24.6453V21.4312C6.08984 20.5757 6.37599 19.7779 6.85868 19.1363C7.35005 18.4802 8.04952 17.983 8.85305 17.7489C8.91664 17.7287 8.98311 17.7229 9.0467 17.7229L9.04382 17.72C8.54378 17.2171 8.23162 16.5263 8.23162 15.7661C8.23162 15.0001 8.54378 14.3093 9.04382 13.8093C9.54385 13.3093 10.2375 13 11.0006 13ZM12.0758 14.6938C11.8012 14.4221 11.4197 14.2515 11.0006 14.2515C10.5815 14.2515 10.2 14.4221 9.92827 14.6967C9.65369 14.9712 9.48315 15.3528 9.48315 15.769C9.48315 16.191 9.65368 16.5696 9.92538 16.8413L9.92827 16.8442C10.2 17.1159 10.5815 17.2864 11.0006 17.2864C11.4197 17.2864 11.7983 17.1159 12.0729 16.8413C12.3475 16.5667 12.5181 16.1881 12.5181 15.769C12.5181 15.3499 12.3475 14.9684 12.0758 14.6938Z" fill="white"/>
<path fill-rule="evenodd" clip-rule="evenodd" d="M29.0005 13C29.7635 13 30.4543 13.3093 30.9544 13.8093L30.9572 13.8122C31.4573 14.3122 31.7665 15.003 31.7665 15.7661C31.7665 16.5292 31.4573 17.2228 30.9572 17.7229C31.0208 17.72 31.0844 17.7287 31.148 17.7489C31.9515 17.9859 32.651 18.4831 33.1424 19.1363C33.6251 19.7779 33.9112 20.5728 33.9112 21.4312V24.6453V25.2697H33.2869H28.0003V24.0239H30.8301L30.8243 22.8157C30.8243 22.4718 31.1018 22.1914 31.4457 22.1914C31.7897 22.1914 32.07 22.4689 32.07 22.8128L32.0758 24.0268H32.6626V21.437C32.6626 20.8561 32.4689 20.3184 32.1481 19.8907C31.8157 19.4484 31.3417 19.1103 30.8012 18.9513C30.4717 18.8559 30.2809 18.5091 30.3792 18.1767L30.3763 18.1709C29.9716 18.4021 29.5005 18.538 29.0005 18.538C28.5004 18.538 28.0293 18.405 27.6217 18.168V18.1709C27.7171 18.5004 27.5292 18.8472 27.1997 18.9455C26.862 19.0443 26.5521 19.2124 26.2861 19.4317C25.9944 19.1292 25.6719 18.8568 25.3237 18.6194C25.7544 18.2197 26.2769 17.9167 26.8529 17.7489C26.9165 17.7287 26.983 17.7229 27.0466 17.7229L27.0437 17.72C26.5436 17.2171 26.2315 16.5263 26.2315 15.7661C26.2315 15.0001 26.5436 14.3093 27.0437 13.8093C27.5437 13.3093 28.2374 13 29.0005 13ZM30.0757 14.6938C29.8011 14.4221 29.4196 14.2515 29.0005 14.2515C28.5813 14.2515 28.1998 14.4221 27.9281 14.6967C27.6535 14.9712 27.483 15.3528 27.483 15.769C27.483 16.191 27.6535 16.5696 27.9252 16.8413L27.9281 16.8442C28.1998 17.1159 28.5813 17.2864 29.0005 17.2864C29.4196 17.2864 29.7982 17.1159 30.0728 16.8413C30.3474 16.5667 30.5179 16.1881 30.5179 15.769C30.5179 15.3499 30.3474 14.9684 30.0757 14.6938Z" fill="white"/>
</svg>
