<svg width="40" height="40" viewBox="0 0 40 40" fill="none" xmlns="http://www.w3.org/2000/svg">
<path d="M24.7123 17.0043V17.0043H24.6123L24.7123 17.0043ZM24.7123 17.0043V15.2588M24.7123 17.0043V15.2588M24.7123 15.2588C24.7123 13.6776 24.0842 12.1612 22.9661 11.0431M24.7123 15.2588L22.9661 11.0431M22.9661 11.0431C21.8481 9.92509 20.3317 9.29697 18.7505 9.29697M22.9661 11.0431L18.7505 9.29697M18.7505 9.29697C17.1693 9.29697 15.6529 9.92509 14.5348 11.0431M18.7505 9.29697L14.5348 11.0431M14.5348 11.0431C13.4168 12.1612 12.7887 13.6776 12.7887 15.2588M14.5348 11.0431L12.7887 15.2588M12.7887 15.2588V17.0043M12.7887 15.2588V17.0043M12.7887 17.0043C12.7887 17.0043 12.7887 17.0043 12.7887 17.0043V17.0043ZM13.5137 17.7293H23.9872H13.5137H13.5137ZM14.2387 15.2588C14.2387 14.0622 14.714 12.9146 15.5602 12.0685C16.4063 11.2223 17.5539 10.747 18.7505 10.747C19.9471 10.747 21.0947 11.2223 21.9408 12.0685C22.7869 12.9146 23.2623 14.0622 23.2623 15.2588V16.2793H14.2387V15.2588Z" fill="white" stroke="white" stroke-width="0.2"/>
<mask id="path-2-outside-1" maskUnits="userSpaceOnUse" x="0.250488" y="0.25" width="39" height="39" fill="black">
<rect fill="white" x="0.250488" y="0.25" width="39" height="39"/>
<path d="M32.7565 20.6369V16.4625H35.6252C35.7157 16.4624 35.805 16.4428 35.8871 16.4048C35.9691 16.3669 36.042 16.3116 36.1007 16.2428C36.1593 16.174 36.2024 16.0933 36.2268 16.0063C36.2513 15.9192 36.2565 15.8279 36.2423 15.7386C35.6737 13.1771 34.4757 10.7976 32.7565 8.81533V1.87502C32.7565 1.70925 32.6906 1.55028 32.5734 1.43307C32.4562 1.31586 32.2973 1.25002 32.1315 1.25002H26.3127C26.147 1.25002 25.988 1.31586 25.8708 1.43307C25.7536 1.55028 25.6877 1.70925 25.6877 1.87502V3.43877C23.5153 2.42843 21.224 1.69672 18.8681 1.26102C18.79 1.24633 18.7099 1.24633 18.6318 1.26102C3.24793 4.22245 1.27587 15.625 1.25818 15.7398C1.24405 15.829 1.24943 15.9202 1.27394 16.0071C1.29845 16.0941 1.34151 16.1746 1.40016 16.2433C1.45881 16.312 1.53165 16.3672 1.61366 16.405C1.69568 16.4429 1.78492 16.4625 1.87524 16.4625H4.74399V31.5063H3.61899C3.5369 31.5062 3.45561 31.5223 3.37976 31.5537C3.30391 31.5851 3.23499 31.6312 3.17694 31.6892C3.11889 31.7473 3.07286 31.8162 3.04147 31.892C3.01008 31.9679 2.99394 32.0492 2.99399 32.1313V35.625C2.99399 35.7908 3.05984 35.9497 3.17705 36.067C3.29426 36.1842 3.45323 36.25 3.61899 36.25H23.0204C24.0327 37.187 25.2395 37.8888 26.5545 38.3053C27.8695 38.7219 29.2602 38.8428 30.6274 38.6596C31.9945 38.4764 33.3043 37.9934 34.4632 37.2453C35.6222 36.4972 36.6015 35.5024 37.3314 34.332C38.0613 33.1615 38.5237 31.8443 38.6855 30.4744C38.8473 29.1046 38.7046 27.7159 38.2676 26.4076C37.8305 25.0992 37.1099 23.9036 36.1572 22.906C35.2046 21.9085 34.0433 21.1337 32.7565 20.6369ZM5.36899 15.2125H2.66812C3.36899 12.779 6.54812 4.90664 18.7502 2.51164C21.2822 2.98334 23.7316 3.82269 26.0207 5.00308C26.116 5.05343 26.2227 5.07828 26.3304 5.07523C26.4381 5.07218 26.5432 5.04133 26.6355 4.98568C26.7278 4.93002 26.8041 4.85145 26.8571 4.75759C26.91 4.66374 26.9378 4.55778 26.9377 4.45002V2.50002H31.5065V9.04377C31.5066 9.19235 31.5596 9.33604 31.656 9.44908C33.1064 11.1266 34.1883 13.0902 34.8315 15.2125H32.1315C32.0494 15.2125 31.9681 15.2286 31.8923 15.26C31.8164 15.2914 31.7475 15.3374 31.6894 15.3955C31.6314 15.4535 31.5854 15.5224 31.554 15.5983C31.5226 15.6741 31.5064 15.7554 31.5065 15.8375V20.2443C31.4631 20.2342 31.4184 20.231 31.3752 20.2215C31.1159 20.165 30.8547 20.1198 30.5916 20.0859C30.5047 20.0746 30.4181 20.0635 30.3309 20.0546C30.0135 20.0202 29.6945 20.002 29.3752 20C27.6637 19.9965 25.9849 20.4685 24.5259 21.3633C24.4736 21.2657 24.3961 21.184 24.3014 21.1267C24.2067 21.0694 24.0984 21.0387 23.9877 21.0376H18.7654C18.7601 21.0376 18.7556 21.0346 18.7502 21.0346C18.7449 21.0346 18.7404 21.0375 18.7351 21.0376H13.5127C13.4307 21.0376 13.3494 21.0537 13.2735 21.0851C13.1977 21.1165 13.1287 21.1625 13.0707 21.2206C13.0126 21.2786 12.9666 21.3476 12.9352 21.4234C12.9038 21.4993 12.8877 21.5805 12.8877 21.6626V31.5063H5.99399V15.8375C5.99404 15.7554 5.97791 15.6741 5.94652 15.5983C5.91513 15.5224 5.86909 15.4535 5.81104 15.3955C5.753 15.3374 5.68408 15.2914 5.60823 15.26C5.53238 15.2286 5.45108 15.2125 5.36899 15.2125ZM22.6659 22.8415C22.5304 22.9795 22.403 23.1228 22.2771 23.2677C22.1764 23.3839 22.0753 23.499 21.9807 23.6198C21.8625 23.7706 21.7537 23.927 21.6454 24.0843C21.5592 24.2093 21.4713 24.333 21.3916 24.462C21.2904 24.6256 21.2004 24.7947 21.1099 24.964C21.0393 25.096 20.9654 25.2257 20.9014 25.361C20.8174 25.5381 20.7464 25.7209 20.6738 25.9033C20.62 26.0385 20.5613 26.1711 20.5137 26.3089C20.4467 26.5033 20.3949 26.703 20.3409 26.9023C20.305 27.0346 20.2621 27.1644 20.2319 27.2987C20.1816 27.5233 20.1488 27.7528 20.1148 27.982C20.098 28.0962 20.0724 28.2078 20.0596 28.323C20.0205 28.6723 20.0007 29.0235 20.0002 29.375C20.0022 29.6943 20.0203 30.0132 20.0547 30.3306C20.0636 30.4177 20.0747 30.5043 20.0859 30.5912C20.1203 30.8543 20.1655 31.1156 20.2216 31.3749C20.231 31.4183 20.2341 31.463 20.2443 31.5061H19.3752V22.2875H23.2449C23.1587 22.3615 23.0835 22.4446 23.0004 22.5213C22.8866 22.6265 22.7737 22.7317 22.6659 22.8415ZM14.1377 31.5063V22.2875H18.1252V31.5063H14.1377ZM4.24399 35V32.7563H18.7382C18.7424 32.7563 18.7459 32.7587 18.7502 32.7587C18.7546 32.7587 18.7581 32.7563 18.7623 32.7563H20.6295C20.7082 32.9591 20.7941 33.1589 20.8871 33.3558C20.8915 33.3651 20.8967 33.3739 20.9011 33.3831C21.0435 33.6799 21.2015 33.969 21.3743 34.2493C21.4021 34.2947 21.428 34.3408 21.4565 34.3858C21.5895 34.5954 21.7284 34.8013 21.8777 34.9999L4.24399 35ZM29.3752 37.5C28.308 37.5008 27.2511 37.2912 26.265 36.8832C25.2788 36.4752 24.3828 35.8767 23.6282 35.1221C22.8735 34.3675 22.2751 33.4714 21.867 32.4853C21.459 31.4991 21.2494 30.4422 21.2502 29.375C21.2502 29.0625 21.2678 28.7502 21.303 28.4396C21.5366 26.4615 22.487 24.6375 23.9745 23.3127C25.462 21.9879 27.3833 21.254 29.3752 21.25C29.5933 21.25 29.8106 21.2586 30.0269 21.2759C32.1193 21.4433 34.0657 22.414 35.4584 23.9845C36.851 25.5551 37.5817 27.6037 37.4975 29.7011C37.4132 31.7985 36.5205 33.7819 35.0064 35.2357C33.4923 36.6896 31.4743 37.501 29.3752 37.5Z"/>
</mask>
<path d="M32.7565 20.6369V16.4625H35.6252C35.7157 16.4624 35.805 16.4428 35.8871 16.4048C35.9691 16.3669 36.042 16.3116 36.1007 16.2428C36.1593 16.174 36.2024 16.0933 36.2268 16.0063C36.2513 15.9192 36.2565 15.8279 36.2423 15.7386C35.6737 13.1771 34.4757 10.7976 32.7565 8.81533V1.87502C32.7565 1.70925 32.6906 1.55028 32.5734 1.43307C32.4562 1.31586 32.2973 1.25002 32.1315 1.25002H26.3127C26.147 1.25002 25.988 1.31586 25.8708 1.43307C25.7536 1.55028 25.6877 1.70925 25.6877 1.87502V3.43877C23.5153 2.42843 21.224 1.69672 18.8681 1.26102C18.79 1.24633 18.7099 1.24633 18.6318 1.26102C3.24793 4.22245 1.27587 15.625 1.25818 15.7398C1.24405 15.829 1.24943 15.9202 1.27394 16.0071C1.29845 16.0941 1.34151 16.1746 1.40016 16.2433C1.45881 16.312 1.53165 16.3672 1.61366 16.405C1.69568 16.4429 1.78492 16.4625 1.87524 16.4625H4.74399V31.5063H3.61899C3.5369 31.5062 3.45561 31.5223 3.37976 31.5537C3.30391 31.5851 3.23499 31.6312 3.17694 31.6892C3.11889 31.7473 3.07286 31.8162 3.04147 31.892C3.01008 31.9679 2.99394 32.0492 2.99399 32.1313V35.625C2.99399 35.7908 3.05984 35.9497 3.17705 36.067C3.29426 36.1842 3.45323 36.25 3.61899 36.25H23.0204C24.0327 37.187 25.2395 37.8888 26.5545 38.3053C27.8695 38.7219 29.2602 38.8428 30.6274 38.6596C31.9945 38.4764 33.3043 37.9934 34.4632 37.2453C35.6222 36.4972 36.6015 35.5024 37.3314 34.332C38.0613 33.1615 38.5237 31.8443 38.6855 30.4744C38.8473 29.1046 38.7046 27.7159 38.2676 26.4076C37.8305 25.0992 37.1099 23.9036 36.1572 22.906C35.2046 21.9085 34.0433 21.1337 32.7565 20.6369ZM5.36899 15.2125H2.66812C3.36899 12.779 6.54812 4.90664 18.7502 2.51164C21.2822 2.98334 23.7316 3.82269 26.0207 5.00308C26.116 5.05343 26.2227 5.07828 26.3304 5.07523C26.4381 5.07218 26.5432 5.04133 26.6355 4.98568C26.7278 4.93002 26.8041 4.85145 26.8571 4.75759C26.91 4.66374 26.9378 4.55778 26.9377 4.45002V2.50002H31.5065V9.04377C31.5066 9.19235 31.5596 9.33604 31.656 9.44908C33.1064 11.1266 34.1883 13.0902 34.8315 15.2125H32.1315C32.0494 15.2125 31.9681 15.2286 31.8923 15.26C31.8164 15.2914 31.7475 15.3374 31.6894 15.3955C31.6314 15.4535 31.5854 15.5224 31.554 15.5983C31.5226 15.6741 31.5064 15.7554 31.5065 15.8375V20.2443C31.4631 20.2342 31.4184 20.231 31.3752 20.2215C31.1159 20.165 30.8547 20.1198 30.5916 20.0859C30.5047 20.0746 30.4181 20.0635 30.3309 20.0546C30.0135 20.0202 29.6945 20.002 29.3752 20C27.6637 19.9965 25.9849 20.4685 24.5259 21.3633C24.4736 21.2657 24.3961 21.184 24.3014 21.1267C24.2067 21.0694 24.0984 21.0387 23.9877 21.0376H18.7654C18.7601 21.0376 18.7556 21.0346 18.7502 21.0346C18.7449 21.0346 18.7404 21.0375 18.7351 21.0376H13.5127C13.4307 21.0376 13.3494 21.0537 13.2735 21.0851C13.1977 21.1165 13.1287 21.1625 13.0707 21.2206C13.0126 21.2786 12.9666 21.3476 12.9352 21.4234C12.9038 21.4993 12.8877 21.5805 12.8877 21.6626V31.5063H5.99399V15.8375C5.99404 15.7554 5.97791 15.6741 5.94652 15.5983C5.91513 15.5224 5.86909 15.4535 5.81104 15.3955C5.753 15.3374 5.68408 15.2914 5.60823 15.26C5.53238 15.2286 5.45108 15.2125 5.36899 15.2125ZM22.6659 22.8415C22.5304 22.9795 22.403 23.1228 22.2771 23.2677C22.1764 23.3839 22.0753 23.499 21.9807 23.6198C21.8625 23.7706 21.7537 23.927 21.6454 24.0843C21.5592 24.2093 21.4713 24.333 21.3916 24.462C21.2904 24.6256 21.2004 24.7947 21.1099 24.964C21.0393 25.096 20.9654 25.2257 20.9014 25.361C20.8174 25.5381 20.7464 25.7209 20.6738 25.9033C20.62 26.0385 20.5613 26.1711 20.5137 26.3089C20.4467 26.5033 20.3949 26.703 20.3409 26.9023C20.305 27.0346 20.2621 27.1644 20.2319 27.2987C20.1816 27.5233 20.1488 27.7528 20.1148 27.982C20.098 28.0962 20.0724 28.2078 20.0596 28.323C20.0205 28.6723 20.0007 29.0235 20.0002 29.375C20.0022 29.6943 20.0203 30.0132 20.0547 30.3306C20.0636 30.4177 20.0747 30.5043 20.0859 30.5912C20.1203 30.8543 20.1655 31.1156 20.2216 31.3749C20.231 31.4183 20.2341 31.463 20.2443 31.5061H19.3752V22.2875H23.2449C23.1587 22.3615 23.0835 22.4446 23.0004 22.5213C22.8866 22.6265 22.7737 22.7317 22.6659 22.8415ZM14.1377 31.5063V22.2875H18.1252V31.5063H14.1377ZM4.24399 35V32.7563H18.7382C18.7424 32.7563 18.7459 32.7587 18.7502 32.7587C18.7546 32.7587 18.7581 32.7563 18.7623 32.7563H20.6295C20.7082 32.9591 20.7941 33.1589 20.8871 33.3558C20.8915 33.3651 20.8967 33.3739 20.9011 33.3831C21.0435 33.6799 21.2015 33.969 21.3743 34.2493C21.4021 34.2947 21.428 34.3408 21.4565 34.3858C21.5895 34.5954 21.7284 34.8013 21.8777 34.9999L4.24399 35ZM29.3752 37.5C28.308 37.5008 27.2511 37.2912 26.265 36.8832C25.2788 36.4752 24.3828 35.8767 23.6282 35.1221C22.8735 34.3675 22.2751 33.4714 21.867 32.4853C21.459 31.4991 21.2494 30.4422 21.2502 29.375C21.2502 29.0625 21.2678 28.7502 21.303 28.4396C21.5366 26.4615 22.487 24.6375 23.9745 23.3127C25.462 21.9879 27.3833 21.254 29.3752 21.25C29.5933 21.25 29.8106 21.2586 30.0269 21.2759C32.1193 21.4433 34.0657 22.414 35.4584 23.9845C36.851 25.5551 37.5817 27.6037 37.4975 29.7011C37.4132 31.7985 36.5205 33.7819 35.0064 35.2357C33.4923 36.6896 31.4743 37.501 29.3752 37.5Z" fill="white"/>
<path d="M32.7565 20.6369V16.4625H35.6252C35.7157 16.4624 35.805 16.4428 35.8871 16.4048C35.9691 16.3669 36.042 16.3116 36.1007 16.2428C36.1593 16.174 36.2024 16.0933 36.2268 16.0063C36.2513 15.9192 36.2565 15.8279 36.2423 15.7386C35.6737 13.1771 34.4757 10.7976 32.7565 8.81533V1.87502C32.7565 1.70925 32.6906 1.55028 32.5734 1.43307C32.4562 1.31586 32.2973 1.25002 32.1315 1.25002H26.3127C26.147 1.25002 25.988 1.31586 25.8708 1.43307C25.7536 1.55028 25.6877 1.70925 25.6877 1.87502V3.43877C23.5153 2.42843 21.224 1.69672 18.8681 1.26102C18.79 1.24633 18.7099 1.24633 18.6318 1.26102C3.24793 4.22245 1.27587 15.625 1.25818 15.7398C1.24405 15.829 1.24943 15.9202 1.27394 16.0071C1.29845 16.0941 1.34151 16.1746 1.40016 16.2433C1.45881 16.312 1.53165 16.3672 1.61366 16.405C1.69568 16.4429 1.78492 16.4625 1.87524 16.4625H4.74399V31.5063H3.61899C3.5369 31.5062 3.45561 31.5223 3.37976 31.5537C3.30391 31.5851 3.23499 31.6312 3.17694 31.6892C3.11889 31.7473 3.07286 31.8162 3.04147 31.892C3.01008 31.9679 2.99394 32.0492 2.99399 32.1313V35.625C2.99399 35.7908 3.05984 35.9497 3.17705 36.067C3.29426 36.1842 3.45323 36.25 3.61899 36.25H23.0204C24.0327 37.187 25.2395 37.8888 26.5545 38.3053C27.8695 38.7219 29.2602 38.8428 30.6274 38.6596C31.9945 38.4764 33.3043 37.9934 34.4632 37.2453C35.6222 36.4972 36.6015 35.5024 37.3314 34.332C38.0613 33.1615 38.5237 31.8443 38.6855 30.4744C38.8473 29.1046 38.7046 27.7159 38.2676 26.4076C37.8305 25.0992 37.1099 23.9036 36.1572 22.906C35.2046 21.9085 34.0433 21.1337 32.7565 20.6369ZM5.36899 15.2125H2.66812C3.36899 12.779 6.54812 4.90664 18.7502 2.51164C21.2822 2.98334 23.7316 3.82269 26.0207 5.00308C26.116 5.05343 26.2227 5.07828 26.3304 5.07523C26.4381 5.07218 26.5432 5.04133 26.6355 4.98568C26.7278 4.93002 26.8041 4.85145 26.8571 4.75759C26.91 4.66374 26.9378 4.55778 26.9377 4.45002V2.50002H31.5065V9.04377C31.5066 9.19235 31.5596 9.33604 31.656 9.44908C33.1064 11.1266 34.1883 13.0902 34.8315 15.2125H32.1315C32.0494 15.2125 31.9681 15.2286 31.8923 15.26C31.8164 15.2914 31.7475 15.3374 31.6894 15.3955C31.6314 15.4535 31.5854 15.5224 31.554 15.5983C31.5226 15.6741 31.5064 15.7554 31.5065 15.8375V20.2443C31.4631 20.2342 31.4184 20.231 31.3752 20.2215C31.1159 20.165 30.8547 20.1198 30.5916 20.0859C30.5047 20.0746 30.4181 20.0635 30.3309 20.0546C30.0135 20.0202 29.6945 20.002 29.3752 20C27.6637 19.9965 25.9849 20.4685 24.5259 21.3633C24.4736 21.2657 24.3961 21.184 24.3014 21.1267C24.2067 21.0694 24.0984 21.0387 23.9877 21.0376H18.7654C18.7601 21.0376 18.7556 21.0346 18.7502 21.0346C18.7449 21.0346 18.7404 21.0375 18.7351 21.0376H13.5127C13.4307 21.0376 13.3494 21.0537 13.2735 21.0851C13.1977 21.1165 13.1287 21.1625 13.0707 21.2206C13.0126 21.2786 12.9666 21.3476 12.9352 21.4234C12.9038 21.4993 12.8877 21.5805 12.8877 21.6626V31.5063H5.99399V15.8375C5.99404 15.7554 5.97791 15.6741 5.94652 15.5983C5.91513 15.5224 5.86909 15.4535 5.81104 15.3955C5.753 15.3374 5.68408 15.2914 5.60823 15.26C5.53238 15.2286 5.45108 15.2125 5.36899 15.2125ZM22.6659 22.8415C22.5304 22.9795 22.403 23.1228 22.2771 23.2677C22.1764 23.3839 22.0753 23.499 21.9807 23.6198C21.8625 23.7706 21.7537 23.927 21.6454 24.0843C21.5592 24.2093 21.4713 24.333 21.3916 24.462C21.2904 24.6256 21.2004 24.7947 21.1099 24.964C21.0393 25.096 20.9654 25.2257 20.9014 25.361C20.8174 25.5381 20.7464 25.7209 20.6738 25.9033C20.62 26.0385 20.5613 26.1711 20.5137 26.3089C20.4467 26.5033 20.3949 26.703 20.3409 26.9023C20.305 27.0346 20.2621 27.1644 20.2319 27.2987C20.1816 27.5233 20.1488 27.7528 20.1148 27.982C20.098 28.0962 20.0724 28.2078 20.0596 28.323C20.0205 28.6723 20.0007 29.0235 20.0002 29.375C20.0022 29.6943 20.0203 30.0132 20.0547 30.3306C20.0636 30.4177 20.0747 30.5043 20.0859 30.5912C20.1203 30.8543 20.1655 31.1156 20.2216 31.3749C20.231 31.4183 20.2341 31.463 20.2443 31.5061H19.3752V22.2875H23.2449C23.1587 22.3615 23.0835 22.4446 23.0004 22.5213C22.8866 22.6265 22.7737 22.7317 22.6659 22.8415ZM14.1377 31.5063V22.2875H18.1252V31.5063H14.1377ZM4.24399 35V32.7563H18.7382C18.7424 32.7563 18.7459 32.7587 18.7502 32.7587C18.7546 32.7587 18.7581 32.7563 18.7623 32.7563H20.6295C20.7082 32.9591 20.7941 33.1589 20.8871 33.3558C20.8915 33.3651 20.8967 33.3739 20.9011 33.3831C21.0435 33.6799 21.2015 33.969 21.3743 34.2493C21.4021 34.2947 21.428 34.3408 21.4565 34.3858C21.5895 34.5954 21.7284 34.8013 21.8777 34.9999L4.24399 35ZM29.3752 37.5C28.308 37.5008 27.2511 37.2912 26.265 36.8832C25.2788 36.4752 24.3828 35.8767 23.6282 35.1221C22.8735 34.3675 22.2751 33.4714 21.867 32.4853C21.459 31.4991 21.2494 30.4422 21.2502 29.375C21.2502 29.0625 21.2678 28.7502 21.303 28.4396C21.5366 26.4615 22.487 24.6375 23.9745 23.3127C25.462 21.9879 27.3833 21.254 29.3752 21.25C29.5933 21.25 29.8106 21.2586 30.0269 21.2759C32.1193 21.4433 34.0657 22.414 35.4584 23.9845C36.851 25.5551 37.5817 27.6037 37.4975 29.7011C37.4132 31.7985 36.5205 33.7819 35.0064 35.2357C33.4923 36.6896 31.4743 37.501 29.3752 37.5Z" stroke="white" stroke-width="0.4" mask="url(#path-2-outside-1)"/>
<path d="M28.8866 30.2448H30.1091M28.8866 30.2448C28.2141 30.2462 27.5678 29.9847 27.0855 29.5161C26.6033 29.0474 26.3234 28.4088 26.3056 27.7366C26.2878 27.0644 26.5336 26.4119 26.9904 25.9184C27.4472 25.4249 28.0789 25.1296 28.7505 25.0956V23.75C28.7505 23.5842 28.8163 23.4253 28.9335 23.3081C29.0507 23.1908 29.2097 23.125 29.3755 23.125C29.5412 23.125 29.7002 23.1908 29.8174 23.3081C29.9346 23.4253 30.0005 23.5842 30.0005 23.75V24.9818H30.1005M28.8866 30.2448V30.3448H28.8868M28.8866 30.2448L28.8868 30.3448M30.1091 30.2448L28.8866 28.9948C28.5335 28.9948 28.1948 28.8545 27.9451 28.6048C27.6954 28.3551 27.5551 28.0164 27.5551 27.6633C27.5551 27.3102 27.6954 26.9715 27.9451 26.7218C28.1948 26.4721 28.5335 26.3318 28.8866 26.3318H31.3323C31.498 26.3318 31.657 26.266 31.7742 26.1488C31.8914 26.0315 31.9573 25.8726 31.9573 25.7068C31.9573 25.5411 31.8914 25.3821 31.7742 25.2649C31.657 25.1477 31.498 25.0818 31.3323 25.0818H30.1005V24.9818M30.1091 30.2448C30.2525 30.2437 30.3947 30.271 30.5275 30.3251M30.1091 30.2448L30.5275 30.3251M30.1005 24.9818H31.3323C31.5246 24.9818 31.709 25.0582 31.8449 25.1942C31.9809 25.3301 32.0573 25.5145 32.0573 25.7068C32.0573 25.8991 31.9809 26.0835 31.8449 26.2195C31.709 26.3554 31.5246 26.4318 31.3323 26.4318H28.8866C28.56 26.4318 28.2467 26.5616 28.0158 26.7925C27.7849 27.0234 27.6551 27.3367 27.6551 27.6633C27.6551 27.9899 27.7849 28.3031 28.0158 28.5341C28.2467 28.765 28.56 28.8948 28.8866 28.8948H30.1088L30.1091 33.6682V33.7682H30.1089H30.1005V35C30.1005 35.1923 30.0241 35.3767 29.8881 35.5127C29.7521 35.6486 29.5677 35.725 29.3755 35.725C29.1832 35.725 28.9988 35.6486 28.8628 35.5127C28.7268 35.3767 28.6505 35.1923 28.6505 35V33.7682H27.4186C27.2264 33.7682 27.042 33.6918 26.906 33.5558C26.77 33.4199 26.6936 33.2355 26.6936 33.0432C26.6936 32.8509 26.77 32.6665 26.906 32.5305C27.042 32.3946 27.2264 32.3182 27.4186 32.3182H30.1091H30.1098C30.2401 32.3192 30.3692 32.2944 30.4897 32.2452C30.6103 32.1961 30.72 32.1236 30.8124 32.0318C30.9048 31.9401 30.9782 31.831 31.0282 31.7108C31.0783 31.5906 31.1041 31.4617 31.1041 31.3315C31.1041 31.2013 31.0783 31.0723 31.0282 30.9521C30.9782 30.8319 30.9048 30.7228 30.8124 30.6311C30.72 30.5394 30.6103 30.4668 30.4897 30.4177C30.3692 30.3686 30.2401 30.3438 30.1098 30.3447L30.1091 30.3448L28.8868 30.3448M30.1005 24.9818V23.75C30.1005 23.5577 30.0241 23.3733 29.8881 23.2373C29.7521 23.1014 29.5677 23.025 29.3755 23.025C29.1832 23.025 28.9988 23.1014 28.8628 23.2373C28.7268 23.3733 28.6505 23.5577 28.6505 23.75V25.0022C27.9884 25.0594 27.37 25.3611 26.917 25.8505C26.4425 26.3631 26.1872 27.0409 26.2056 27.7392C26.2241 28.4375 26.5148 29.101 27.0158 29.5878C27.5168 30.0746 28.1883 30.3463 28.8868 30.3448M30.5275 30.3251C30.6603 30.3792 30.7811 30.4591 30.8829 30.5601M30.5275 30.3251L30.8829 30.5601M30.8829 30.5601C30.9846 30.6611 31.0654 30.7813 31.1206 30.9137M30.8829 30.5601L31.1206 30.9137M31.1206 30.9137C31.1757 31.0461 31.2041 31.1881 31.2041 31.3315M31.1206 30.9137L31.2041 31.3315M31.2041 31.3315C31.2041 31.4749 31.1757 31.6169 31.1206 31.7493M31.2041 31.3315L31.1206 31.7493M31.1206 31.7493C31.0654 31.8816 30.9846 32.0018 30.8829 32.1028M31.1206 31.7493L30.8829 32.1028M30.8829 32.1028C30.7811 32.2038 30.6603 32.2837 30.5275 32.3378M30.8829 32.1028L30.5275 32.3378M30.5275 32.3378C30.3947 32.392 30.2525 32.4193 30.1091 32.4182L30.5275 32.3378Z" fill="white" stroke="white" stroke-width="0.2"/>
</svg>
