<svg width="60" height="60" viewBox="0 0 60 60" fill="none" xmlns="http://www.w3.org/2000/svg">
<path d="M56.9113 11.4052C57.4285 10.8879 57.7389 10.1638 57.7389 9.43965C57.7389 8.71552 57.4285 7.99138 56.9113 7.47414L52.5664 3.12931C51.532 2.09483 49.5664 2.09483 48.532 3.12931L44.1871 7.47414L37.2561 14.1983C35.0837 13.1638 32.6009 12.5431 30.0147 12.5431C27.4285 12.5431 24.9458 13.1638 22.7733 14.1983L15.9458 7.37069L11.6009 3.02586C10.5664 1.99138 8.70438 1.99138 7.56645 3.02586L3.11817 7.37069C1.98024 8.50862 1.98024 10.2672 3.11817 11.4052L7.463 15.75L14.2906 22.5776C13.2561 24.75 12.6354 27.2328 12.6354 29.819C12.6354 32.4052 13.2561 34.8879 14.2906 37.0603L6.11817 45.2328C6.01472 45.3362 6.01472 45.4397 5.91127 45.5431L2.29058 56.7155C2.18713 57.0259 2.29058 57.3362 2.49748 57.5431C2.60093 57.6465 2.80782 57.75 3.01472 57.75C3.11817 57.75 3.22162 57.75 3.22162 57.75L14.1871 54.1293C14.2906 54.1293 14.394 54.0259 14.4975 53.9224L22.6699 45.75C24.8423 46.7845 27.3251 47.4052 29.9113 47.4052C32.4975 47.4052 34.9802 46.7845 37.1527 45.75L45.3251 53.9224C45.4285 54.0259 45.532 54.0259 45.6354 54.1293L56.6009 57.75C56.7044 57.75 56.8078 57.75 56.8078 57.75C57.0147 57.75 57.2216 57.6465 57.3251 57.5431C57.532 57.3362 57.6354 57.0259 57.532 56.7155L53.9113 45.75C53.9113 45.6465 53.8078 45.5431 53.7044 45.4397L45.532 37.2672C46.5664 35.0948 47.1871 32.6121 47.1871 30.0259C47.1871 27.4397 46.5664 24.9569 45.532 22.7845L52.3595 15.9569L56.9113 11.4052ZM49.6699 4.06034C50.1871 3.5431 51.0147 3.5431 51.532 4.06034L55.8768 8.40517C56.394 8.92241 56.394 9.75 55.8768 10.2672L52.0492 14.0948L45.8423 7.88793L49.6699 4.06034ZM44.7044 9.02586L47.2906 11.6121L41.7044 17.1983C40.7733 16.3707 39.8423 15.6466 38.8078 15.0259L44.7044 9.02586ZM18.3251 17.1983L12.7389 11.6121L15.3251 9.02586L21.3251 15.0259C20.1871 15.6466 19.2561 16.3707 18.3251 17.1983ZM4.15265 8.50862L8.49748 4.16379C8.70438 3.9569 9.01472 3.75 9.42851 3.75C9.84231 3.75 10.0492 3.85345 10.3595 4.16379L14.1871 7.99138L7.98024 14.1983L4.15265 10.2672C3.63541 9.75 3.63541 8.92241 4.15265 8.50862ZM9.11817 15.2328L11.7044 12.6466L17.2906 18.2328C16.463 19.1638 15.7389 20.0948 15.1182 21.1293L9.11817 15.2328ZM15.1182 38.6121C15.7389 39.6466 16.463 40.681 17.2906 41.5086L10.3595 48.5431L7.77334 45.9569L15.1182 38.6121ZM4.2561 55.681L7.0492 47.4052L12.6354 52.9914L4.2561 55.681ZM13.9802 52.1638L11.394 49.5776L18.3251 42.6465C19.2561 43.4741 20.1871 44.1983 21.2216 44.819L13.9802 52.1638ZM41.7044 42.6465L48.6354 49.5776L46.0492 52.1638L38.7044 44.819C39.8423 44.1983 40.7733 43.4741 41.7044 42.6465ZM47.4975 52.8879L53.0837 47.3017L55.8768 55.5776L47.4975 52.8879ZM52.2561 45.9569L49.6699 48.5431L42.7389 41.6121C43.5664 40.681 44.2906 39.75 44.9113 38.7155L52.2561 45.9569ZM30.0147 45.75C21.3251 45.75 14.2906 38.7155 14.2906 29.9224C14.2906 21.1293 21.3251 14.1983 30.0147 14.1983C38.7044 14.1983 45.8423 21.2328 45.8423 30.0259C45.8423 38.819 38.7044 45.75 30.0147 45.75ZM44.9113 21.2328C44.2906 20.1983 43.5664 19.1638 42.7389 18.3362L48.3251 12.75L50.9113 15.3362L44.9113 21.2328Z" fill="black" fill-opacity="0.8"/>
<path d="M30.0149 16.7845C22.7735 16.7845 16.877 22.681 16.877 30.0259C16.877 37.3707 22.7735 43.1638 30.0149 43.1638C37.2563 43.1638 43.2563 37.2672 43.2563 30.0259C43.2563 22.7845 37.2563 16.7845 30.0149 16.7845ZM30.0149 41.6121C23.6011 41.6121 18.4287 36.4397 18.4287 30.0259C18.4287 23.6121 23.6011 18.3362 30.0149 18.3362C36.4287 18.3362 41.7045 23.5086 41.7045 30.0259C41.7045 36.5431 36.4287 41.6121 30.0149 41.6121Z" fill="black" fill-opacity="0.8"/>
<path d="M30.6353 28.6809C30.5319 28.6809 30.4284 28.5774 30.4284 28.474V24.7498C30.4284 24.6464 30.4284 24.5429 30.5319 24.5429C30.6353 24.5429 30.7388 24.4395 30.7388 24.5429C31.3594 24.8533 31.8767 25.2671 31.9801 25.9912L33.9456 25.7843C33.7388 24.9567 33.4284 24.336 32.9112 23.9223C32.2905 23.405 31.5663 23.0947 30.5319 22.9912C30.4284 22.9912 30.325 22.8878 30.325 22.7843V22.0602H29.3939V22.7843C29.3939 22.8878 29.2905 22.9912 29.187 22.9912C28.1525 23.0947 27.325 23.5085 26.7043 24.1291C26.0836 24.7498 25.7732 25.5774 25.7732 26.6119C25.7732 28.6809 26.9112 30.0257 29.2905 30.6464C29.3939 30.6464 29.4974 30.7498 29.4974 30.8533V34.8878C29.4974 34.9912 29.4974 35.0947 29.3939 35.0947C29.2905 35.0947 29.187 35.1981 29.187 35.0947C28.7732 34.8878 28.4629 34.5774 28.1525 34.1636C27.8422 33.8533 27.7388 33.4395 27.5319 32.9222L25.4629 33.1291C25.8767 35.405 27.1181 36.5429 29.2905 36.8533C29.3939 36.8533 29.4974 36.9567 29.4974 37.0602V37.8878H30.4284V36.9567C30.4284 36.8533 30.5319 36.7498 30.6353 36.7498C31.7732 36.5429 32.8077 36.1291 33.4284 35.405C34.1525 34.6809 34.4629 33.7498 34.4629 32.6119C34.4629 31.5774 34.1525 30.7498 33.5319 30.1291C33.1181 29.6119 32.187 29.0947 30.6353 28.6809ZM29.6008 28.0602C29.6008 28.1636 29.6008 28.2671 29.4974 28.2671H29.3939H29.2905C28.3594 27.8533 27.8422 27.2326 27.8422 26.3016C27.8422 25.8878 27.9456 25.474 28.256 25.1636C28.5663 24.8533 28.8767 24.5429 29.2905 24.4395C29.3939 24.4395 29.4974 24.4395 29.4974 24.4395C29.6008 24.4395 29.6008 24.5429 29.6008 24.6464V28.0602ZM32.0836 34.474C31.7732 34.8878 31.256 35.0947 30.7388 35.1981C30.6353 35.1981 30.6353 35.1981 30.5319 35.0947C30.4284 35.0947 30.4284 34.9912 30.4284 34.8878V31.1636C30.4284 31.0602 30.4284 30.9567 30.5319 30.9567C30.6353 30.9567 30.6353 30.8533 30.7388 30.9567C31.9801 31.2671 32.6008 31.9912 32.6008 33.0257C32.7043 33.5429 32.4974 34.0602 32.0836 34.474Z" fill="black" fill-opacity="0.8"/>
</svg>
