<svg width="60" height="60" viewBox="0 0 60 60" fill="none" xmlns="http://www.w3.org/2000/svg">
<path d="M54 0.738464H18C14.5846 0.738464 11.723 3.50769 11.723 7.01539V13.4769C11.723 13.8462 12 14.2154 12.4615 14.2154C12.923 14.2154 13.2 13.9385 13.2 13.4769V7.01539C13.2 4.33846 15.4153 2.12308 18.0923 2.12308H19.0153C21.6923 2.12308 23.9076 4.33846 23.9076 7.01539V12.5539C23.9076 12.9231 24.1846 13.2923 24.6461 13.2923H27.4153C27.7846 13.2923 28.1538 13.0154 28.1538 12.5539C28.1538 12.0923 27.8769 11.8154 27.4153 11.8154H25.2923V6.92308C25.2923 4.98462 24.3692 3.23077 22.9846 2.03077H54.1846C57.0461 2.03077 58.1538 4.52308 58.1538 6.92308V11.8154H27.4153C27.0461 11.8154 26.6769 12.0923 26.6769 12.5539C26.6769 13.0154 26.9538 13.2923 27.4153 13.2923H51.5076V53.2615C51.5076 55.9385 49.2923 58.1539 46.6153 58.1539C43.9384 58.1539 41.723 55.9385 41.723 53.2615V47.7231C41.723 47.3539 41.4461 46.9846 40.9846 46.9846H13.2V43.0154C13.2 42.6462 12.923 42.2769 12.4615 42.2769C12 42.2769 11.723 42.5538 11.723 43.0154V46.9846H6.92303C6.5538 46.9846 6.18457 47.2615 6.18457 47.7231V53.2615C6.18457 56.6769 8.9538 59.5385 12.4615 59.5385H46.6153C50.0307 59.5385 52.8923 56.7692 52.8923 53.2615V13.2H58.7076C59.0769 13.2 59.4461 12.9231 59.4461 12.4615V6.92308C59.3538 3.13846 57.2307 0.738464 54 0.738464ZM12.4615 57.9692C9.78457 57.9692 7.56919 55.7539 7.56919 53.0769V48.1846H40.3384V53.0769C40.3384 55.0154 41.2615 56.7692 42.6461 57.9692H12.4615Z" fill="black" fill-opacity="0.8"/>
<path d="M28.1535 32.5846H48.4612C48.8304 32.5846 49.1996 32.3077 49.1996 31.8462C49.1996 31.3846 48.9227 31.1077 48.4612 31.1077H28.1535C27.7843 31.1077 27.415 31.3846 27.415 31.8462C27.415 32.3077 27.7843 32.5846 28.1535 32.5846Z" fill="black" fill-opacity="0.8"/>
<path d="M27.5073 27.2308C27.5073 27.6 27.7842 27.9692 28.2458 27.9692H48.5535C48.9227 27.9692 49.2919 27.6923 49.2919 27.2308C49.2919 26.7692 49.015 26.4923 48.5535 26.4923H28.2458C27.7842 26.5846 27.5073 26.8615 27.5073 27.2308Z" fill="black" fill-opacity="0.8"/>
<path d="M37.3845 23.2615H48.4614C48.8306 23.2615 49.1998 22.9846 49.1998 22.5231C49.1998 22.0615 48.9229 21.7846 48.4614 21.7846H37.3845C37.0152 21.7846 36.646 22.0615 36.646 22.5231C36.646 22.9846 37.0152 23.2615 37.3845 23.2615Z" fill="black" fill-opacity="0.8"/>
<path d="M37.3845 18.6462H48.4614C48.8306 18.6462 49.1998 18.3693 49.1998 17.9077C49.1998 17.4462 48.9229 17.1693 48.4614 17.1693H37.3845C37.0152 17.1693 36.646 17.4462 36.646 17.9077C36.646 18.3693 37.0152 18.6462 37.3845 18.6462Z" fill="black" fill-opacity="0.8"/>
<path d="M28.1535 37.2H48.4612C48.8304 37.2 49.1996 36.9231 49.1996 36.4615C49.1996 36 48.9227 35.7231 48.4612 35.7231H28.1535C27.7843 35.7231 27.415 36 27.415 36.4615C27.415 36.9231 27.7843 37.2 28.1535 37.2Z" fill="black" fill-opacity="0.8"/>
<path d="M28.1535 41.8154H48.4612C48.8304 41.8154 49.1996 41.5385 49.1996 41.077C49.1996 40.6154 48.9227 40.3385 48.4612 40.3385H28.1535C27.7843 40.3385 27.415 40.6154 27.415 41.077C27.415 41.5385 27.7843 41.8154 28.1535 41.8154Z" fill="black" fill-opacity="0.8"/>
<path d="M12.4614 39.9692C15.6921 39.9692 18.646 38.6769 20.7691 36.5539C22.8921 34.4308 24.1844 31.4769 24.1844 28.2462C24.1844 21.7846 18.9229 16.4308 12.369 16.4308C5.8152 16.4308 0.738281 21.6923 0.738281 28.1539C0.738281 34.6154 5.99982 39.9692 12.4614 39.9692ZM20.3075 34.9846L14.2152 28.8923H22.8921C22.6152 31.2 21.6921 33.3231 20.3075 34.9846ZM22.7998 27.5077H13.1998V17.8154C18.369 18.1846 22.4306 22.2462 22.7998 27.5077ZM11.8152 17.8154V28.1539C11.8152 28.2462 11.8152 28.3385 11.9075 28.4308C11.9075 28.5231 11.9998 28.6154 12.0921 28.6154L19.3844 35.9077C17.5383 37.4769 15.1383 38.4923 12.5537 38.4923C6.83059 38.4923 2.1229 33.8769 2.1229 28.0616C2.1229 22.7077 6.36905 18.1846 11.8152 17.8154Z" fill="black" fill-opacity="0.8"/>
</svg>
