<svg width="60" height="60" viewBox="0 0 60 60" fill="none" xmlns="http://www.w3.org/2000/svg">
<path d="M47.3148 8.10133H47.603L47.3767 7.92283C42.4343 4.0233 36.3605 1.90033 30.0099 1.90033C14.5131 1.90033 1.90522 14.5082 1.90522 30.005C1.90522 30.5028 1.50198 30.9052 1.00505 30.9052C0.508121 30.9052 0.104883 30.5028 0.104883 30.005C0.104883 13.5155 13.5204 0.1 30.0099 0.1C36.9688 0.1 43.6095 2.50028 48.9486 6.88839L49.1121 7.02276V6.81113V1.00017C49.1121 0.502368 49.5153 0.1 50.0122 0.1C50.5092 0.1 50.9124 0.502368 50.9124 1.00017V9.90167H50.1212V9.90109L50.1105 9.90224C50.0536 9.90837 49.9984 9.90764 49.9373 9.90208L49.9373 9.90167H49.9282H42.0119C41.515 9.90167 41.1117 9.4993 41.1117 9.0015C41.1117 8.5037 41.515 8.10133 42.0119 8.10133H47.3148Z" fill="black" fill-opacity="0.8" stroke="white" stroke-width="0.2"/>
<path d="M8.10635 30.005C8.10635 17.9272 17.9322 8.10134 30.01 8.10134C42.0878 8.10134 51.9137 17.9272 51.9137 30.005C51.9137 42.0828 42.0878 51.9087 30.01 51.9087C17.9322 51.9087 8.10635 42.0828 8.10635 30.005ZM9.90668 30.005C9.90668 41.0901 18.9249 50.1083 30.01 50.1083C41.0951 50.1083 50.1133 41.0901 50.1133 30.005C50.1133 18.9199 41.0951 9.90168 30.01 9.90168C18.9249 9.90168 9.90668 18.9199 9.90668 30.005Z" fill="black" fill-opacity="0.8" stroke="white" stroke-width="0.2"/>
<path d="M30.9101 14.0023C30.9101 14.5001 30.5069 14.9025 30.0099 14.9025C29.513 14.9025 29.1098 14.5001 29.1098 14.0023V12.002C29.1098 11.5042 29.513 11.1018 30.0099 11.1018C30.5069 11.1018 30.9101 11.5042 30.9101 12.002V14.0023Z" fill="black" fill-opacity="0.8" stroke="white" stroke-width="0.2"/>
<path d="M29.1098 46.0077C29.1098 45.5099 29.513 45.1075 30.0099 45.1075C30.5069 45.1075 30.9101 45.5099 30.9101 46.0077V48.008C30.9101 48.5058 30.5069 48.9082 30.0099 48.9082C29.513 48.9082 29.1098 48.5058 29.1098 48.008V46.0077Z" fill="black" fill-opacity="0.8" stroke="white" stroke-width="0.2"/>
<path d="M48.0127 30.9052H46.0124C45.5154 30.9052 45.1122 30.5028 45.1122 30.005C45.1122 29.5072 45.5154 29.1048 46.0124 29.1048H48.0127C48.5096 29.1048 48.9129 29.5072 48.9129 30.005C48.9129 30.5028 48.5096 30.9052 48.0127 30.9052Z" fill="black" fill-opacity="0.8" stroke="white" stroke-width="0.2"/>
<path d="M12.007 29.1048H14.0073C14.5043 29.1048 14.9075 29.5072 14.9075 30.005C14.9075 30.5028 14.5043 30.9052 14.0073 30.9052H12.007C11.5101 30.9052 11.1068 30.5028 11.1068 30.005C11.1068 29.5072 11.5101 29.1048 12.007 29.1048Z" fill="black" fill-opacity="0.8" stroke="white" stroke-width="0.2"/>
<path d="M30.9102 25.1462V25.2235L30.9851 25.243C32.6631 25.6791 33.9107 27.1929 33.9107 29.0048C33.9107 31.156 32.1612 32.9055 30.0101 32.9055C29.2898 32.9055 28.6231 32.6963 28.0416 32.3523L27.9749 32.3128L27.92 32.3677L19.6446 40.6431C19.4691 40.8187 19.2388 40.9068 19.0082 40.9068C18.7777 40.9068 18.5474 40.8187 18.3718 40.6431C18.0198 40.2911 18.0198 39.7223 18.3718 39.3703L26.6472 31.0949L26.7021 31.04L26.6626 30.9733C26.3186 30.3918 26.1094 29.7251 26.1094 29.0048C26.1094 27.1929 27.357 25.6791 29.035 25.243L29.1099 25.2235V25.1462V20.0033C29.1099 19.5055 29.5131 19.1032 30.0101 19.1032C30.507 19.1032 30.9102 19.5055 30.9102 20.0033V25.1462ZM27.9097 29.0048C27.9097 30.1633 28.8516 31.1052 30.0101 31.1052C31.1685 31.1052 32.1104 30.1633 32.1104 29.0048C32.1104 27.8464 31.1685 26.9045 30.0101 26.9045C28.8516 26.9045 27.9097 27.8464 27.9097 29.0048Z" fill="black" fill-opacity="0.8" stroke="white" stroke-width="0.2"/>
<path d="M6.94798 47.5976L6.94788 47.5976C6.78505 47.7143 6.60544 47.768 6.42604 47.768C6.13837 47.768 5.86826 47.6346 5.68685 47.3892C5.39953 46.9853 5.48887 46.4276 5.89455 46.1297C6.29898 45.8416 6.86669 45.9411 7.15502 46.3361C7.44319 46.7419 7.35137 47.3092 6.94798 47.5976Z" fill="black" fill-opacity="0.8" stroke="white" stroke-width="0.2"/>
<path d="M9.72968 50.7375L9.72991 50.7373C10.0533 50.3867 10.6063 50.3518 10.9666 50.6536V50.6639L10.9997 50.6937C11.3667 51.0249 11.387 51.5909 11.0533 51.9617C10.8725 52.151 10.6291 52.2497 10.3865 52.2497C10.1717 52.2497 9.95559 52.1692 9.78376 52.0157C9.41394 51.6723 9.38827 51.105 9.72968 50.7375Z" fill="black" fill-opacity="0.8" stroke="white" stroke-width="0.2"/>
<path d="M59.0307 30.225L59.031 30.225C59.5253 30.2421 59.9127 30.6552 59.8947 31.1616C59.8767 31.6372 59.4805 32.0254 58.9945 32.0254H58.9944H58.9944H58.9943H58.9943H58.9942H58.9941H58.9941H58.994H58.994H58.9939H58.9938H58.9938H58.9937H58.9937H58.9936H58.9936H58.9935H58.9934H58.9934H58.9933H58.9933H58.9932H58.9931H58.9931H58.993H58.993H58.9929H58.9928H58.9928H58.9927H58.9927H58.9926H58.9926H58.9925H58.9924H58.9924H58.9923H58.9923H58.9922H58.9921H58.9921H58.992H58.992H58.9919H58.9918H58.9918H58.9917H58.9917H58.9916H58.9916H58.9915H58.9914H58.9914H58.9913H58.9913H58.9912H58.9911H58.9911H58.991H58.991H58.9909H58.9908H58.9908H58.9907H58.9907H58.9906H58.9905H58.9905H58.9904H58.9904H58.9903H58.9902H58.9902H58.9901H58.9901H58.99H58.9899H58.9899H58.9898H58.9898H58.9897H58.9896H58.9896H58.9895H58.9895H58.9894H58.9893H58.9893H58.9892H58.9892H58.9891H58.989H58.989H58.9889H58.9889H58.9888H58.9887H58.9887H58.9886H58.9886H58.9885H58.9884H58.9884H58.9883H58.9883H58.9882H58.9881H58.9881H58.988H58.9879H58.9879H58.9878H58.9878H58.9877H58.9876H58.9876H58.9875H58.9875H58.9874H58.9873H58.9873H58.9872H58.9871H58.9871H58.987H58.987H58.9869H58.9868H58.9868H58.9867H58.9866H58.9866H58.9865H58.9865H58.9864H58.9863H58.9863H58.9862H58.9861H58.9861H58.986H58.986H58.9859H58.9858H58.9858H58.9857H58.9856H58.9856H58.9855H58.9854H58.9854H58.9853H58.9853H58.9852H58.9851H58.9851H58.985H58.9849H58.9849H58.9848H58.9847H58.9847H58.9846H58.9846H58.9845H58.9844H58.9844H58.9843H58.9842H58.9842H58.9841H58.984H58.984H58.9839H58.9838H58.9838H58.9837H58.9836H58.9836H58.9835H58.9834H58.9834H58.9833H58.9832H58.9832H58.9831H58.983H58.983H58.9829H58.9828H58.9828H58.9827H58.9826H58.9826H58.9825H58.9824H58.9824H58.9823H58.9822H58.9822H58.9821H58.982H58.982H58.9819H58.9818H58.9818H58.9817H58.9816H58.9816H58.9815H58.9814H58.9814H58.9813H58.9812H58.9811H58.9811H58.981H58.9809H58.9809H58.9808H58.9807H58.9807H58.9806H58.9805H58.9805H58.9804H58.9803H58.9802H58.9802H58.9801H58.98H58.98H58.9799H58.9798H58.9798H58.9797H58.9796H58.9795H58.9795H58.9794H58.9793H58.9793H58.9792H58.9791H58.979H58.979H58.9789H58.9788H58.9787H58.9787H58.9786H58.9785H58.9785H58.9784H58.9783H58.9782H58.9782H58.9781H58.978H58.9779H58.9779H58.9778H58.9777H58.9776H58.9776H58.9775H58.9774H58.9773H58.9773H58.9772H58.9771H58.9771H58.977H58.9769H58.9768H58.9767H58.9767H58.9766H58.9765H58.9764H58.9764H58.9763H58.9762H58.9761H58.9761H58.976H58.9759H58.9758H58.9758H58.9757H58.9756H58.9755H58.9754H58.9754H58.9753H58.9752H58.9751H58.9751H58.975H58.9749H58.9748H58.9747H58.9747H58.9746H58.9745H58.9744H58.9743H58.9743H58.9742H58.9741H58.974H58.9739H58.9739H58.9738H58.9737H58.9736H58.9735H58.9735H58.9734H58.9733H58.9732H58.9731H58.973H58.973H58.9729H58.9728H58.9727H58.9726H58.9726H58.9725H58.9724H58.9723H58.9722H58.9721H58.9721H58.972H58.9719H58.9718H58.9717H58.9716H58.9716H58.9715H58.9714H58.9713H58.9712H58.9711H58.971H58.971H58.9709H58.9708H58.9707H58.9706H58.9705H58.9704H58.9704H58.9703H58.9702H58.9701H58.97H58.9699H58.9698H58.9697H58.9697H58.9696H58.9695H58.9694H58.9693H58.9692H58.9691H58.969H58.9689H58.9689H58.9688H58.9687H58.9686H58.9685H58.9684H58.9683H58.9682H58.9681H58.968H58.9679H58.9679H58.9678H58.9677H58.9676H58.9675H58.9674H58.9673H58.9672H58.9671H58.967H58.9669H58.9668H58.9667H58.9667H58.9666H58.9665H58.9664H58.9663H58.9662H58.9661H58.966H58.9659H58.9658H58.9657H58.9656H58.9655H58.9654H58.9653H58.9652H58.9651H58.965H58.9649H58.9648H58.9647H58.9646H58.9646H58.9645H58.9644H58.9643H58.9642H58.9641H58.964H58.9639H58.9638H58.9637H58.9636H58.9635H58.9634H58.9633H58.9632H58.9631H58.963H58.9629H58.9628H58.9627H58.9626H58.9625H58.9624H58.9623H58.9622H58.962H58.9619H58.9618H58.9617H58.9616H58.9615H58.9614H58.9613H58.9612H58.9611H58.961H58.9609H58.9608H58.9607H58.9606H58.9605H58.9604H58.9603H58.9602H58.9601H58.96H58.9599H58.9597H58.9596H58.9595H58.9594H58.9593H58.9592H58.9591H58.959H58.9589H58.9588H58.9587H58.9586H58.9584H58.9583H58.9582H58.9581H58.958H58.9579H58.9578H58.9577H58.9576H58.9575H58.9573H58.9572H58.9571H58.957H58.9569H58.9568H58.9567H58.9566H58.9564H58.9563C58.4623 32.0065 58.0762 31.5842 58.0943 31.0889C58.1122 30.5947 58.5351 30.2061 59.0307 30.225Z" fill="black" fill-opacity="0.8" stroke="white" stroke-width="0.2"/>
<path d="M1.80542 36.8382L1.80536 36.8379L1.79791 36.84C1.7435 36.8556 1.68645 36.8562 1.61534 36.8562C1.20029 36.8562 0.823845 36.5674 0.743399 36.1472L0.743441 36.1472L0.742802 36.1444C0.635067 35.6596 0.94928 35.1818 1.43527 35.0828L1.43528 35.0829L1.437 35.0825C1.92156 34.9748 2.39847 35.2897 2.49752 35.7759L2.4975 35.7759L2.49789 35.7777C2.6056 36.2624 2.29151 36.7392 1.80542 36.8382Z" fill="black" fill-opacity="0.8" stroke="white" stroke-width="0.2"/>
<path d="M3.81522 42.4845L3.8152 42.4845L3.81292 42.4856C3.69606 42.5404 3.57053 42.5671 3.45534 42.5671C3.1057 42.5671 2.78086 42.3602 2.62653 42.0253C2.42879 41.5663 2.63676 41.036 3.08521 40.8385C3.54547 40.6401 4.07615 40.8482 4.27378 41.2967C4.47129 41.7573 4.26285 42.2881 3.81522 42.4845Z" fill="black" fill-opacity="0.8" stroke="white" stroke-width="0.2"/>
<path d="M52.2219 47.2099L52.2219 47.2099L52.2226 47.209C52.5289 46.8127 53.0862 46.7416 53.4827 47.047C53.8794 47.3527 53.9502 47.9194 53.6453 48.305L53.6444 48.3062C53.4644 48.5411 53.1945 48.6581 52.9336 48.6581C52.7365 48.6581 52.5475 48.5959 52.3742 48.4686C51.9878 48.1629 51.9171 47.5954 52.2219 47.2099Z" fill="black" fill-opacity="0.8" stroke="white" stroke-width="0.2"/>
<path d="M48.1088 52.6724C47.7851 52.2945 47.8299 51.7278 48.2081 51.4035C48.586 51.0806 49.1521 51.1252 49.4775 51.5037C49.8013 51.8815 49.7566 52.4483 49.3786 52.7726C49.2068 52.9171 48.9997 52.9888 48.7932 52.9888C48.542 52.9888 48.2897 52.8803 48.1088 52.6724Z" fill="black" fill-opacity="0.8" stroke="white" stroke-width="0.2"/>
<path d="M59.0179 37.2701L59.0175 37.2715C58.9187 37.6758 58.5495 37.9554 58.1445 37.9554C58.0721 37.9554 58.0007 37.9472 57.9299 37.9287C57.4521 37.8024 57.1549 37.3158 57.2713 36.8296C57.398 36.3524 57.8842 36.0557 58.37 36.172C58.8471 36.2998 59.1435 36.7865 59.0179 37.2701Z" fill="black" fill-opacity="0.8" stroke="white" stroke-width="0.2"/>
<path d="M14.4213 54.4726L14.4213 54.4726L14.4226 54.4704C14.6736 54.0392 15.221 53.9033 15.6551 54.1548C16.0804 54.4175 16.2209 54.9662 15.9613 55.3878L15.9605 55.3892C15.7893 55.6775 15.4928 55.8303 15.1863 55.8303C15.0316 55.8303 14.8707 55.7939 14.7292 55.7055L14.7293 55.7055L14.7274 55.7044C14.3044 55.4524 14.1611 54.8942 14.4213 54.4726Z" fill="black" fill-opacity="0.8" stroke="white" stroke-width="0.2"/>
<path d="M56.4906 41.8668L56.4912 41.8671C56.9397 42.0824 57.1213 42.6208 56.9044 43.0738C56.7518 43.3887 56.4278 43.5783 56.0944 43.5783C55.9582 43.5783 55.8238 43.5502 55.699 43.4878L55.699 43.4878L55.6982 43.4874C55.2579 43.2726 55.068 42.7312 55.2844 42.2803C55.4997 41.8317 56.0489 41.6514 56.4906 41.8668Z" fill="black" fill-opacity="0.8" stroke="white" stroke-width="0.2"/>
<path d="M26.5666 57.8988L26.5668 57.8988C27.0625 57.9611 27.413 58.4034 27.3502 58.8961L27.3501 58.8971C27.2961 59.357 26.9094 59.6899 26.4592 59.6899H26.459H26.4588H26.4585H26.4583H26.4581H26.4578H26.4576H26.4574H26.4571H26.4569H26.4567H26.4564H26.4562H26.4559H26.4557H26.4555H26.4552H26.455H26.4548H26.4545H26.4543H26.4541H26.4538H26.4536H26.4534H26.4531H26.4529H26.4527H26.4524H26.4522H26.452H26.4517H26.4515H26.4513H26.451H26.4508H26.4506H26.4503H26.4501H26.4499H26.4496H26.4494H26.4492H26.4489H26.4487H26.4484H26.4482H26.448H26.4477H26.4475H26.4473H26.447H26.4468H26.4466H26.4463H26.4461H26.4459H26.4456H26.4454H26.4452H26.4449H26.4447H26.4445H26.4442H26.444H26.4438H26.4435H26.4433H26.4431H26.4428H26.4426H26.4424H26.4421H26.4419H26.4416H26.4414H26.4412H26.4409H26.4407H26.4405H26.4402H26.44H26.4398H26.4395H26.4393H26.4392V59.6891L26.3499 59.6795C25.8563 59.6265 25.5052 59.1777 25.5683 58.6824L25.5683 58.6823C25.6315 58.1846 26.0728 57.8359 26.5666 57.8988Z" fill="black" fill-opacity="0.8" stroke="white" stroke-width="0.2"/>
<path d="M20.9155 56.6039L20.9173 56.6045C21.3828 56.7567 21.6364 57.2685 21.4738 57.7474C21.3481 58.1153 20.9973 58.3498 20.6283 58.3498C20.5312 58.3498 20.4316 58.3323 20.3278 58.3042C19.8615 58.1408 19.6112 57.6286 19.7726 57.1623L19.7728 57.1617C19.9348 56.6848 20.4473 56.4409 20.9155 56.6039Z" fill="black" fill-opacity="0.8" stroke="white" stroke-width="0.2"/>
<path d="M38.0683 56.9358L38.0683 56.9358L38.0702 56.9352C38.5477 56.7911 39.051 57.0616 39.1959 57.5289C39.3396 58.0048 39.0697 58.5097 38.593 58.6539C38.5036 58.6798 38.4133 58.6898 38.3313 58.6898C37.9438 58.6898 37.5838 58.4372 37.4669 58.0498L37.4669 58.0497C37.3227 57.5729 37.5935 57.0693 38.0683 56.9358Z" fill="black" fill-opacity="0.8" stroke="white" stroke-width="0.2"/>
<path d="M31.5487 58.9812L31.5487 58.9812L31.5485 58.9798C31.5037 58.4866 31.871 58.0549 32.3673 58.0083C32.8647 57.9727 33.3037 58.3441 33.3395 58.8361L33.3395 58.8361L33.3397 58.8378C33.3846 59.3319 33.0165 59.7633 32.5219 59.7992L32.4291 59.806V59.8087C31.9691 59.7987 31.5841 59.4425 31.5487 58.9812Z" fill="black" fill-opacity="0.8" stroke="white" stroke-width="0.2"/>
<path d="M43.428 54.6974L43.428 54.6975L43.4302 54.6963C43.861 54.4539 44.41 54.6153 44.6429 55.0559L44.6429 55.0559L44.6442 55.0582C44.8865 55.4889 44.7253 56.0371 44.2844 56.2711L44.2843 56.2709L44.2798 56.2737C44.1461 56.3539 44.004 56.3894 43.8612 56.3894C43.5366 56.3894 43.2314 56.2195 43.0694 55.9136L43.0695 55.9135L43.0683 55.9114C42.8259 55.4796 42.9872 54.9313 43.428 54.6974Z" fill="black" fill-opacity="0.8" stroke="white" stroke-width="0.2"/>
</svg>
