<svg width="60" height="60" viewBox="0 0 60 60" fill="none" xmlns="http://www.w3.org/2000/svg">
<path d="M20.5578 39.2089V39.1202L20.48 39.0774C14.1427 35.5945 10.234 29.014 10.234 21.7491C10.234 10.8481 19.1026 1.97941 30.0034 1.97941C40.9042 1.97941 49.7728 10.8481 49.7728 21.7491C49.7728 29.014 45.8641 35.5945 39.5268 39.0774L39.449 39.1202V39.2089V44.3034V44.4534H39.4496V50.3279H39.4437V50.4779V54.3987H33.8414H33.7L33.6916 54.5398C33.5771 56.4784 31.9641 58.0205 29.9977 58.0205C28.0313 58.0205 26.4183 56.4784 26.3036 54.5398L26.2953 54.3987H26.1539H20.5478V48.5241H20.5535V48.3741V44.4534H20.5578V44.3034V39.2089ZM22.5074 46.2573H22.3574V46.4073V48.3741V48.5241H22.5074H37.4957H37.6457V48.3741V46.4073V46.2573H37.4957H22.5074ZM28.2685 54.3987H28.0959L28.12 54.5697C28.2369 55.3984 28.9291 56.2167 29.9977 56.2167C30.9597 56.2167 31.7541 55.4969 31.8768 54.5684L31.8992 54.3987H31.7281H28.2685ZM37.4899 52.5948H37.6399V52.4448V50.478V50.328H37.4899H22.5017H22.3517V50.478V52.4448V52.5948H22.5017H37.4899ZM37.4951 44.3956H37.6451V44.2456V38.0223L38.1382 37.7714C44.2017 34.6866 47.9689 28.5467 47.9689 21.7491C47.9689 11.8426 39.9098 3.78337 30.0034 3.78337C20.0971 3.78337 12.0379 11.8426 12.0379 21.7491C12.0379 28.5467 15.8051 34.6866 21.8687 37.7714L22.3617 38.0223V44.2456V44.3956H22.5117H28.9476H29.0976V44.2456V28.7V28.6379L29.0537 28.5939L22.8137 22.3536C22.4615 22.0015 22.4615 21.4305 22.8138 21.0781L22.7078 20.972L22.8138 21.0781C23.166 20.7259 23.7372 20.726 24.0894 21.0782L29.8935 26.8827L29.9996 26.9888L30.1057 26.8827L35.9099 21.0782C36.2622 20.7259 36.8333 20.726 37.1854 21.0781C37.5377 21.4304 37.5377 22.0014 37.1855 22.3536L30.9455 28.5939L30.9016 28.6379V28.7V44.2456V44.3956H31.0516H37.4951Z" fill="black" fill-opacity="0.8" stroke="white" stroke-width="0.3"/>
<path d="M34.6534 9.25948C34.6534 8.76129 35.0572 8.35752 35.5554 8.35752C36.8463 8.35752 38.7222 9.02289 40.2763 10.3388C41.8257 11.6507 43.0422 13.5979 43.0423 16.154C43.0423 16.6522 42.6385 17.056 42.1403 17.056C41.6421 17.056 41.2384 16.6522 41.2384 16.154C41.2384 14.1711 40.2396 12.6713 39.0383 11.6719C37.8428 10.6772 36.4268 10.1614 35.5554 10.1614C35.0572 10.1614 34.6534 9.75767 34.6534 9.25948Z" fill="black" fill-opacity="0.8" stroke="white" stroke-width="0.3"/>
<path d="M5.9255 22.8608C6.42366 22.8608 6.82744 23.2645 6.82744 23.7627C6.82744 24.2609 6.42366 24.6646 5.9255 24.6646H1.15594C0.65778 24.6646 0.254004 24.2608 0.254004 23.7627C0.254004 23.2645 0.65778 22.8608 1.15594 22.8608H5.9255Z" fill="black" fill-opacity="0.8" stroke="white" stroke-width="0.3"/>
<path d="M8.72028 8.62178L8.72027 8.62177L5.348 5.24931L5.34799 5.24931C4.99598 4.89727 4.42479 4.89712 4.07246 5.24918L8.72028 8.62178ZM8.72028 8.62178C9.07247 8.97392 9.07251 9.54489 8.72015 9.89727L8.72028 8.62178ZM4.07233 6.52471L4.07233 6.52471L7.44459 9.89713C7.62082 10.0733 7.85134 10.1614 8.08244 10.1614C8.31344 10.1614 8.54406 10.0733 8.72014 9.89727L4.07233 6.52471ZM4.07233 6.52471C3.72016 6.17255 3.72013 5.60155 4.07243 5.24921L4.07233 6.52471Z" fill="black" fill-opacity="0.8" stroke="white" stroke-width="0.3"/>
<path d="M5.34734 42.2762L5.34729 42.2763C5.17127 42.4525 4.94065 42.5405 4.70967 42.5405C4.47856 42.5405 4.24808 42.4525 4.07186 42.2763C3.71965 41.9239 3.71965 41.3529 4.07197 41.0006L7.44455 37.6281C7.44455 37.6281 7.44456 37.6281 7.44457 37.6281C7.79675 37.2761 8.36793 37.2761 8.72007 37.6284L8.72012 37.6284C9.07225 37.9804 9.07231 38.5514 8.71997 38.9038C8.71997 38.9038 8.71997 38.9038 8.71997 38.9038L5.34734 42.2762Z" fill="black" fill-opacity="0.8" stroke="white" stroke-width="0.3"/>
<path d="M54.0739 22.8608H58.8434C59.3415 22.8608 59.7453 23.2645 59.7453 23.7627C59.7453 24.2608 59.3415 24.6646 58.8434 24.6646H54.0739C53.5758 24.6646 53.172 24.2608 53.172 23.7627C53.172 23.2645 53.5758 22.8608 54.0739 22.8608Z" fill="black" fill-opacity="0.8" stroke="white" stroke-width="0.3"/>
<path d="M52.5551 9.89729C52.5551 9.89727 52.5551 9.89726 52.5551 9.89725L55.9275 6.52487C56.2797 6.17255 56.2797 5.60149 55.9275 5.24916C55.5752 4.89713 55.0042 4.89714 54.6518 5.24919L52.5551 9.89729ZM52.5551 9.89729C52.3789 10.0733 52.1482 10.1614 51.9173 10.1614C51.6863 10.1614 51.4557 10.0734 51.2794 9.8973C50.9272 9.54499 50.9272 8.97398 51.2794 8.62162C51.2794 8.62161 51.2794 8.6216 51.2794 8.6216L54.6518 5.24922L52.5551 9.89729Z" fill="black" fill-opacity="0.8" stroke="white" stroke-width="0.3"/>
<path d="M52.5544 37.6281L52.5544 37.6281C52.2024 37.2761 51.6312 37.276 51.2789 37.6284L51.2788 37.6284C50.9267 37.9804 50.9267 38.5514 51.279 38.9038L51.279 38.9038L54.6516 42.2762L54.6517 42.2763C54.8277 42.4525 55.0583 42.5405 55.2893 42.5405C55.5203 42.5405 55.7509 42.4525 55.9271 42.2763L52.5544 37.6281ZM52.5544 37.6281L55.927 41.0006C56.2793 41.3529 56.2793 41.9239 55.9271 42.2763L52.5544 37.6281Z" fill="black" fill-opacity="0.8" stroke="white" stroke-width="0.3"/>
</svg>
