<svg width="12" height="8" viewBox="0 0 12 8" fill="none" xmlns="http://www.w3.org/2000/svg">
<path fill-rule="evenodd" clip-rule="evenodd" d="M5.97158 2.51142C5.83253 2.60412 5.67031 2.88221 5.53127 3.06761C5.39222 3.253 5.20682 3.39204 5.32269 3.62379C5.46174 3.90188 5.80936 4.6898 5.97158 4.89837C6.1338 4.71298 6.48141 3.92505 6.62045 3.62379C6.73633 3.36887 6.52776 3.20665 6.38871 3.02126C6.27284 2.88221 6.11062 2.60412 5.97158 2.51142ZM8.56709 5.82534L9.51724 3.8787L8.54392 4.11045L8.56709 5.82534ZM3.46875 5.80217V4.08727L2.49544 3.8787L3.46875 5.80217ZM6.01792 0.078125C6.36554 0.935573 6.89854 2.07111 7.64012 2.90539C8.1963 3.53109 7.94139 3.36887 7.52425 4.29584C7.31568 4.75933 7.01442 5.4082 7.06076 5.96439C7.75599 5.89486 7.91821 4.52758 8.01091 3.92505C8.08043 3.55426 8.12678 3.46157 8.4744 3.3457C9.72581 2.95173 9.67946 3.29935 10.8845 2.09429C11.0467 1.93207 11.0931 1.88572 11.209 1.97841C11.348 2.21016 10.815 2.99808 10.676 3.29935C10.0039 4.6898 9.21597 6.01074 8.98423 7.56341H3.16749C2.93575 6.05708 2.12465 4.66663 1.47577 3.32252C1.38308 3.1603 0.525624 1.8162 1.05863 1.95524L2.03195 2.81269C2.8894 3.46157 3.93224 2.95173 4.09446 3.85553C4.21033 4.48123 4.32621 5.87169 5.04461 5.94121C5.09096 5.38503 4.78969 4.75933 4.58112 4.29584C4.46525 4.04092 4.34938 3.83236 4.23351 3.62379C4.00177 3.253 4.23351 3.11395 4.4189 2.90539C5.11413 2.11746 5.64713 0.842876 6.01792 0.078125Z" fill="#D3AF4A"/>
</svg>
