<svg width="17" height="42" viewBox="0 0 17 42" fill="none" xmlns="http://www.w3.org/2000/svg">
<path fill-rule="evenodd" clip-rule="evenodd" d="M10.9383 30.645C10.9383 30.645 10.9846 29.8339 10.2894 29.0459C9.571 28.2348 7.18405 28.2348 6.16438 27.9336C5.14471 27.6323 5.0752 26.8676 5.0752 26.8676V23.7622C5.0752 23.7622 5.12154 24.5038 6.16438 24.8282C7.18405 25.1295 9.571 25.1295 10.2894 25.9406C10.9846 26.7285 10.9383 27.5396 10.9383 27.5396V30.645Z" fill="#D3AF4A"/>
<path fill-rule="evenodd" clip-rule="evenodd" d="M10.9383 38.1069C10.9383 38.1069 10.9846 37.2958 10.2894 36.5079C9.571 35.6968 7.18405 35.6968 6.16438 35.3955C5.14471 35.0942 5.0752 34.3295 5.0752 34.3295V31.2241C5.0752 31.2241 5.12154 31.9657 6.16438 32.2901C7.18405 32.5914 9.571 32.5914 10.2894 33.4025C10.9846 34.1904 10.9383 35.0015 10.9383 35.0015V38.1069Z" fill="#D3AF4A"/>
<path fill-rule="evenodd" clip-rule="evenodd" d="M7.97182 2.51142C7.83278 2.60412 7.67056 2.88221 7.53151 3.06761C7.39247 3.253 7.20707 3.39204 7.32294 3.62379C7.46198 3.90188 7.8096 4.6898 7.97182 4.89837C8.13404 4.71298 8.48165 3.92505 8.6207 3.62379C8.73657 3.36887 8.528 3.20665 8.38896 3.02126C8.27308 2.88221 8.11087 2.60412 7.97182 2.51142ZM10.5673 5.82534L11.5175 3.8787L10.5442 4.11045L10.5673 5.82534ZM5.469 5.80217V4.08727L4.49568 3.8787L5.469 5.80217ZM8.01817 0.078125C8.36578 0.935573 8.89879 2.07111 9.64036 2.90539C10.1965 3.53109 9.94163 3.36887 9.52449 4.29584C9.31593 4.75933 9.01466 5.4082 9.06101 5.96439C9.75624 5.89486 9.91846 4.52758 10.0112 3.92505C10.0807 3.55426 10.127 3.46157 10.4746 3.3457C11.726 2.95173 11.6797 3.29935 12.8848 2.09429C13.047 1.93207 13.0933 1.88572 13.2092 1.97841C13.3483 2.21016 12.8152 2.99808 12.6762 3.29935C12.0041 4.6898 11.2162 6.01074 10.9845 7.56341H5.16774C4.93599 6.05708 4.1249 4.66663 3.47602 3.32252C3.38332 3.1603 2.52587 1.8162 3.05888 1.95524L4.0322 2.81269C4.88965 3.46157 5.93249 2.95173 6.09471 3.85553C6.21058 4.48123 6.32645 5.87169 7.04485 5.94121C7.0912 5.38503 6.78994 4.75933 6.58137 4.29584C6.4655 4.04092 6.34962 3.83236 6.23375 3.62379C6.00201 3.253 6.23375 3.11395 6.41914 2.90539C7.11437 2.11746 7.64738 0.842876 8.01817 0.078125Z" fill="#D3AF4A"/>
<path fill-rule="evenodd" clip-rule="evenodd" d="M0 41.1425H16.0134V40.0765H0V41.1425ZM0 39.4971L16.0134 39.5435V39.2422L0 39.2885V39.4971Z" fill="#D3AD4A"/>
<path fill-rule="evenodd" clip-rule="evenodd" d="M5.07507 19.3588C5.07507 19.3588 5.02872 18.5477 5.74712 17.7598C6.46552 16.9487 8.85247 16.9487 9.89531 16.6474C10.915 16.3462 10.9613 15.5814 10.9613 15.5814V12.4761C10.9613 12.4761 10.9382 13.2177 9.89531 13.5421C8.87564 13.8434 6.4887 13.8434 5.74712 14.6545C5.05189 15.4424 5.07507 16.2535 5.07507 16.2535V19.3588Z" fill="#AB8B2F"/>
<path fill-rule="evenodd" clip-rule="evenodd" d="M10.9383 15.6047C10.9383 15.6047 10.9846 14.7936 10.2894 14.0056C9.571 13.1945 7.18405 13.1945 6.16438 12.8933C5.14471 12.592 5.0752 11.8273 5.0752 11.8273V8.69873C5.0752 8.69873 5.12154 9.44031 6.16438 9.76475C7.18405 10.066 9.571 10.066 10.2894 10.8771C10.9846 11.665 10.9383 12.4761 10.9383 12.4761V15.6047Z" fill="#D3AF4A"/>
<path fill-rule="evenodd" clip-rule="evenodd" d="M5.07507 26.8906C5.07507 26.8906 5.02872 26.0795 5.74712 25.2915C6.46552 24.4804 8.85247 24.4804 9.89531 24.1792C10.915 23.8779 10.9613 23.1132 10.9613 23.1132V20.0078C10.9613 20.0078 10.9382 20.7494 9.89531 21.0738C8.87564 21.3751 6.4887 21.3751 5.74712 22.1862C5.05189 22.9741 5.07507 23.7852 5.07507 23.7852V26.8906Z" fill="#AB8B2F"/>
<path fill-rule="evenodd" clip-rule="evenodd" d="M10.9383 23.1132C10.9383 23.1132 10.9846 22.3021 10.2894 21.5142C9.571 20.7031 7.18405 20.7031 6.16438 20.4018C5.14471 20.1006 5.0752 19.3358 5.0752 19.3358V16.2305C5.0752 16.2305 5.12154 16.972 6.16438 17.2965C7.18405 17.5977 9.571 17.5977 10.2894 18.4088C10.9846 19.1968 10.9383 20.0079 10.9383 20.0079V23.1132Z" fill="#D3AF4A"/>
<path fill-rule="evenodd" clip-rule="evenodd" d="M5.07507 34.4223C5.07507 34.4223 5.02872 33.6112 5.74712 32.8233C6.46552 32.0122 8.85247 32.0122 9.89531 31.7109C10.915 31.4096 10.9613 30.6449 10.9613 30.6449V27.5396C10.9613 27.5396 10.9382 28.2811 9.89531 28.6056C8.87564 28.9068 6.4887 28.9068 5.74712 29.7179C5.05189 30.5059 5.07507 31.317 5.07507 31.317V34.4223Z" fill="#AB8B2F"/>
</svg>
